<svg xmlns="http://www.w3.org/2000/svg" width="60" height="22" viewBox="0 0 60 22">
    <path fill="#2557D6" fill-rule="nonzero" d="M44.278 2.47l-1.161 2.695h2.328L44.278 2.47zM30.882 4.14c.218-.11.347-.347.347-.643 0-.29-.135-.499-.354-.597-.2-.11-.506-.122-.8-.122h-2.077V4.28h2.05c.327 0 .602-.005.834-.14zM4.268 2.47L3.121 5.165h2.302L4.268 2.47zm53.439 17.267H54.45v-1.45h3.244c.321 0 .547-.04.682-.168a.582.582 0 0 0 .2-.44.544.544 0 0 0-.207-.448c-.122-.103-.3-.15-.594-.15-1.584-.052-3.56.047-3.56-2.093 0-.981.65-2.013 2.42-2.013h3.36v-1.346h-3.121c-.942 0-1.626.216-2.111.552v-.552h-4.617c-.738 0-1.605.175-2.015.552v-.552h-8.245v.552c-.656-.453-1.764-.552-2.274-.552h-5.439v.552c-.519-.481-1.674-.552-2.377-.552h-6.087l-1.392 1.444-1.305-1.444H11.92v9.437h8.92l1.436-1.467 1.351 1.467 5.5.005v-2.22h.54c.73.01 1.59-.018 2.35-.332v2.547h4.535v-2.46h.219c.279 0 .306.011.306.278v2.181h13.779c.875 0 1.79-.214 2.295-.604v.604h4.37c.91 0 1.799-.122 2.475-.435v-1.758c-.41.574-1.209.865-2.29.865zm-27.968-2.228h-2.104v2.268h-3.279l-2.077-2.239-2.158 2.239H13.44v-6.763h6.784l2.075 2.217 2.145-2.217h5.39c1.338 0 2.842.356 2.842 2.228 0 1.879-1.462 2.267-2.937 2.267zm10.12-.307c.238.33.273.638.28 1.234v1.341h-1.694v-.846c0-.407.041-1.01-.272-1.324-.247-.242-.622-.3-1.238-.3h-1.802v2.47h-1.695v-6.763h3.894c.854 0 1.476.037 2.03.32.532.308.867.73.867 1.501 0 1.08-.752 1.63-1.196 1.8.375.132.682.37.826.567zm6.968-2.789h-3.95v1.23h3.853v1.38h-3.853v1.345l3.95.006v1.403h-5.63v-6.763h5.63v1.399zm4.334 5.364h-3.285v-1.45h3.272c.32 0 .546-.04.689-.168a.589.589 0 0 0-.007-.888c-.129-.103-.307-.15-.6-.15-1.578-.052-3.553.047-3.553-2.093 0-.981.643-2.014 2.411-2.014h3.382v1.44h-3.095c-.306 0-.506.01-.675.122-.185.11-.254.272-.254.486a.52.52 0 0 0 .37.504c.177.06.368.077.656.077l.908.024c.915.02 1.544.173 1.926.543.328.326.505.737.505 1.433 0 1.455-.95 2.134-2.65 2.134zm-13.082-5.255c-.204-.116-.504-.122-.805-.122h-2.077v1.519h2.05c.328 0 .607-.011.832-.14.219-.126.35-.36.35-.649 0-.289-.131-.498-.35-.608zm18.846-.122c-.307 0-.511.01-.683.122-.178.11-.246.272-.246.487 0 .254.15.428.368.503.179.06.37.077.65.077l.915.023c.922.022 1.538.174 1.913.545.069.051.11.11.157.167V14.4h-3.074zm-27.127 0h-2.2v1.722h2.18c.648 0 1.051-.308 1.051-.893 0-.591-.422-.83-1.031-.83zm-14.678 0v1.23h3.703v1.38H15.12v1.345h4.147l1.926-1.984L19.35 14.4h-4.23zm10.828 4.729v-5.422l-2.59 2.667 2.59 2.755zM15.261 8.27v1.165h14.092l-.007-2.465h.273c.191.007.247.024.247.326v2.14h7.288v-.574c.588.301 1.502.574 2.705.574h3.066l.657-1.502h1.454l.642 1.502h5.909V8.01l.894 1.426h4.735V.007H52.53v1.114L51.874.007h-4.808v1.114L46.464.007h-6.495c-1.088 0-2.043.146-2.815.55v-.55h-4.482v.55c-.492-.417-1.16-.55-1.905-.55H14.392l-1.098 2.436L12.165.007H7.008v1.114L6.441.007H2.043L0 4.491v3.586l3.02-6.761h2.507l2.868 6.401V1.316h2.753l2.207 4.586 2.028-4.586h2.809v6.76h-1.73l-.006-5.294-2.445 5.295H12.53l-2.452-5.3v5.3H6.647l-.648-1.508H2.487l-.655 1.508H0v1.36h2.882l.65-1.502h1.455l.648 1.502h5.67V8.289l.506 1.153h2.944l.506-1.17zm22.206-6.167c.545-.54 1.399-.789 2.561-.789h1.633v1.45h-1.599c-.615 0-.963.087-1.297.4-.288.284-.485.822-.485 1.531 0 .724.15 1.247.463 1.588.26.267.732.349 1.176.349h.758l2.377-5.317h2.527l2.856 6.395V1.316h2.568l2.965 4.708V1.316h1.727v6.76h-2.39L50.11 3.003v5.075h-3.435l-.656-1.509h-3.504l-.637 1.509h-1.974c-.82 0-1.857-.174-2.445-.748-.593-.574-.901-1.352-.901-2.581 0-1.003.184-1.92.909-2.644zm-3.47-.789h1.721v6.762h-1.72V1.315zm-7.759 0h3.88c.861 0 1.497.022 2.042.324.534.302.854.743.854 1.497a1.907 1.907 0 0 1-1.189 1.802c.37.135.685.373.835.57.238.336.28.636.28 1.24v1.328h-1.702l-.006-.852c0-.407.04-.992-.267-1.317-.246-.238-.622-.29-1.23-.29h-1.81v2.46H26.24V1.315zm-6.8 0h5.635v1.408h-3.947v1.22h3.853v1.385h-3.853v1.35h3.947v1.398H19.44v-6.76z"/>
</svg>
