<svg xmlns="http://www.w3.org/2000/svg" width="55" height="21" viewBox="0 0 55 21">
    <g fill="none" fill-rule="nonzero">
        <path fill="#FFF100" d="M8.233 4.478a5.827 5.827 0 0 1 1.87-.301 5.911 5.911 0 0 1 5.794 4.732l4.051-.827c-.93-4.586-4.982-8.043-9.845-8.043a9.96 9.96 0 0 0-3.18.517l1.31 3.922z"/>
        <path fill="#00A3DF" d="M3.448 17.616l2.742-3.103a5.896 5.896 0 0 1-1.992-4.431c0-1.759.768-3.345 1.992-4.423L3.448 2.565A10.027 10.027 0 0 0 .06 10.09c0 2.99 1.31 5.68 3.388 7.525z"/>
        <path fill="#EE4023" d="M15.897 11.272a5.91 5.91 0 0 1-5.794 4.724 5.919 5.919 0 0 1-1.879-.302l-1.31 3.922c1 .337 2.077.518 3.19.518 4.862 0 8.913-3.449 9.844-8.035l-4.051-.827z"/>
        <path fill="#000" d="M33.448 14.047a3.585 3.585 0 0 1-2.577 1.035 3.505 3.505 0 0 1-1.862-.56l-1.345 2.138c.922.577 2 .922 3.172.94a6.149 6.149 0 0 0 4.38-1.742l-1.768-1.81zm-2.43-8.715a6.138 6.138 0 0 0-6.225 6.034 6.093 6.093 0 0 0 .991 3.44l11.104-4.75a6.138 6.138 0 0 0-5.87-4.724m-3.682 6.517a3.509 3.509 0 0 1-.026-.431 3.61 3.61 0 0 1 3.664-3.552 3.569 3.569 0 0 1 2.698 1.285l-6.336 2.698zM40.38 2.573V14.41l2.052.854-.974 2.336-2.035-.845a2.27 2.27 0 0 1-1-.845c-.224-.344-.396-.827-.396-1.465V2.574h2.353zm7.406 5.474a3.59 3.59 0 0 1 1.146-.18 3.607 3.607 0 0 1 3.535 2.887l2.474-.508A6.132 6.132 0 0 0 48.93 5.34a6.22 6.22 0 0 0-1.94.31l.794 2.397zm-2.923 8.009l1.673-1.888a3.597 3.597 0 0 1-1.216-2.707c0-1.077.474-2.043 1.216-2.698l-1.673-1.888a6.124 6.124 0 0 0-2.069 4.595c0 1.827.802 3.465 2.07 4.586zm7.604-3.862a3.614 3.614 0 0 1-3.535 2.888c-.396 0-.784-.07-1.146-.19l-.802 2.397a6.132 6.132 0 0 0 7.957-4.586l-2.474-.51z"/>
    </g>
</svg>
