<?xml version="1.0" encoding="UTF-8"?>
<svg width="168px" height="98px" viewBox="0 0 168 98" version="1.1" xmlns="http://www.w3.org/2000/svg" xmlns:xlink="http://www.w3.org/1999/xlink">
    <!-- Generator: Sketch 52.6 (67491) - http://www.bohemiancoding.com/sketch -->
    <title>VISA</title>
    <desc>Created with Sketch.</desc>
    <g id="Page-1" stroke="none" stroke-width="1" fill="none" fill-rule="evenodd">
        <g id="VISA" fill="#000000">
            <polyline id="Fill-2" points="51.01 52.792 66.559 1.523 80.433 1.523 64.882 52.792 51.01 52.792"></polyline>
            <path d="M44.808,1.537 L32.328,23.271 C29.151,28.963 27.293,31.838 26.4,35.435 L26.21,35.435 C26.431,30.875 25.795,25.277 25.736,22.112 L24.357,1.537 L1.004,1.537 L0.764,2.916 C6.763,2.916 10.321,5.93 11.3,12.095 L15.852,52.792 L30.225,52.792 L59.288,1.537 L44.808,1.537" id="Fill-3"></path>
            <path d="M152.698,52.792 L152.316,45.168 L134.992,45.154 L131.449,52.792 L116.386,52.792 L143.697,1.621 L162.186,1.621 L166.811,52.792 L152.698,52.792 Z M151.107,22.55 C150.952,18.761 150.824,13.618 151.081,10.506 L150.877,10.506 C150.033,13.052 146.406,20.694 144.811,24.453 L139.649,35.692 L151.812,35.692 L151.107,22.55 Z" id="Fill-4"></path>
            <path d="M94.998,54.248 C85.203,54.248 78.703,51.142 74.063,48.372 L80.671,38.279 C84.837,40.609 88.108,43.298 95.635,43.298 C98.055,43.298 100.386,42.669 101.711,40.376 C103.64,37.041 101.266,35.247 95.847,32.179 L93.17,30.439 C85.136,24.949 81.661,19.734 85.443,10.633 C87.863,4.81 94.246,0.397 104.776,0.397 C112.037,0.397 118.846,3.538 122.813,6.608 L115.215,15.518 C111.343,12.388 108.136,10.803 104.462,10.803 C101.535,10.803 99.31,11.933 98.542,13.456 C97.097,16.319 99.009,18.271 103.232,20.891 L106.414,22.916 C116.168,29.068 118.492,35.519 116.048,41.549 C111.842,51.931 103.61,54.248 94.998,54.248" id="Fill-5"></path>
            <path d="M13.494,97.383 C49.37,82.007 99.709,68.072 166.378,82.025 L167.079,65.115 C96.738,57.435 46.266,79.836 13.494,95.714 L13.494,97.383" id="Fill-6"></path>
        </g>
    </g>
</svg>