<svg xmlns="http://www.w3.org/2000/svg" xmlns:xlink="http://www.w3.org/1999/xlink" width="256" height="120" viewBox="0 0 64 30"><defs><path id="x5n1a" d="M572.34 877.315c0-2.328 1.878-4.215 4.195-4.215s4.195 1.887 4.195 4.215-1.878 4.215-4.195 4.215-4.195-1.887-4.195-4.215z"/><path id="x5n1b" d="M572.34 877.313c0-2.35 1.855-4.213 4.194-4.213 2.338 0 4.193 1.863 4.193 4.213 0 2.349-1.855 4.212-4.193 4.212"/><path id="x5n1c" d="M573.63 874.315c1.613-1.62 4.274-1.62 5.887 0 1.613 1.62 1.613 4.294 0 5.914"/><path id="x5n1d" d="M554.113 879.326c-.484.404-1.13.647-2.097.647h-.484v-5.256h.403c.968 0 1.613.162 2.097.647.565.485.887 1.213.887 1.94.081.728-.242 1.537-.806 2.022zm-1.855-5.986H550v7.94h2.258c1.21 0 2.097-.325 2.823-.892a4.013 4.013 0 0 0 1.451-3.078c0-2.35-1.693-3.97-4.274-3.97z"/><path id="x5n1e" d="M557.26 881.28v-7.94h1.53v7.94z"/><path id="x5n1f" d="M562.666 876.42c-.968-.325-1.21-.568-1.21-.973 0-.486.484-.89 1.13-.89.483 0 .886.161 1.29.647l.806-1.053a3.504 3.504 0 0 0-2.339-.891c-1.37 0-2.5.972-2.5 2.268 0 1.135.484 1.62 1.936 2.188.645.243.887.324 1.048.486a.892.892 0 0 1 .484.81c0 .648-.484 1.134-1.21 1.134a1.88 1.88 0 0 1-1.693-1.053l-.968.972c.726 1.053 1.613 1.54 2.742 1.54 1.613 0 2.742-1.054 2.742-2.593 0-1.377-.484-1.944-2.258-2.593z"/><path id="x5n1g" d="M565.4 877.314c0 2.349 1.855 4.131 4.194 4.131.645 0 1.21-.162 1.935-.486v-1.863c-.645.648-1.21.891-1.855.891-1.532 0-2.661-1.134-2.661-2.754 0-1.54 1.129-2.755 2.58-2.755.726 0 1.29.243 1.936.891v-1.863c-.645-.324-1.21-.486-1.935-.486-2.259.162-4.194 2.025-4.194 4.294z"/><path id="x5n1h" d="M584.19 878.687l-2.096-5.347H580.4l3.306 8.182h.888l3.467-8.182h-1.693z"/><path id="x5n1i" d="M588.71 881.28h4.435v-1.297h-2.822v-2.187h2.742v-1.378h-2.742v-1.7h2.822v-1.378h-4.435z"/><path id="x5n1j" d="M596.206 876.986h-.484v-2.43h.484c.968 0 1.532.404 1.532 1.214 0 .81-.564 1.216-1.532 1.216zm1.29.972c1.21-.243 1.855-1.053 1.855-2.269 0-1.458-1.048-2.349-2.822-2.349h-2.339v7.94h1.532v-3.16h.242l2.178 3.16h1.854z"/><path id="x5n1k" d="M569.676 881.441c.645 0 1.21-.162 1.936-.486v-1.863c-.646.648-1.21.89-1.855.89-1.533 0-2.662-1.133-2.662-2.754 0-.81.323-1.458.807-2.025l-1.049-1.053a4.224 4.224 0 0 0-1.37 3.078c-.081 2.43 1.774 4.213 4.193 4.213z"/><path id="x5n1l" d="M561.37 888.656V884.2l3.065 3.16v-2.917h.645v4.456l-3.065-3.16v2.917h-.645z"/><path id="x5n1m" d="M568.309 885.088h-1.694v.972h1.613v.648h-1.613v1.378h1.694v.567h-2.339v-4.213h2.339z"/><path id="x5n1n" d="M570.323 885.087v3.565h-.645v-3.565h-.968v-.567h2.58v.567z"/><path id="x5n1o" d="M572.255 884.522l1.049 2.835 1.129-2.997 1.048 2.997 1.129-2.835h.806l-1.854 4.456-1.049-2.998-1.129 2.998-1.774-4.456z"/><path id="x5n1p" d="M578.145 886.547c0 .486.161.81.483 1.135.321.324.643.486 1.045.486.402 0 .803-.162 1.125-.486.322-.325.482-.649.482-1.135s-.16-.81-.482-1.134c-.322-.324-.643-.486-1.125-.486-.402 0-.804.162-1.126.486-.241.324-.402.73-.402 1.134zm-.645 0c0-.567.242-1.134.645-1.539a2.198 2.198 0 0 1 1.532-.648c.565 0 1.13.243 1.533.648s.645.972.645 1.54c0 .566-.242 1.134-.645 1.539a2.198 2.198 0 0 1-1.533.648c-.564 0-1.048-.162-1.451-.567-.484-.405-.726-.892-.726-1.62z"/><path id="x5n1q" d="M583.305 886.374h.161c.565 0 .888-.24.888-.643 0-.402-.323-.643-.888-.643h-.241v1.286h.08zm.807.496l1.29 1.783h-.807l-1.21-1.702h-.08v1.702h-.645v-4.213h.726c.564 0 .968.081 1.21.324.241.243.403.567.403.891 0 .324-.08.567-.242.73-.162.323-.403.485-.645.485z"/><path id="x5n1r" d="M586.616 886.142l1.613-1.701h.806l-1.855 1.863 1.855 2.269h-.806l-1.533-1.864-.16.162v1.702h-.646v-4.213h.645v1.782z"/></defs><g><g transform="translate(-543 -866)"><g><g><use fill="#ffffff" xlink:href="#x5n1a"/></g><g><use fill="#ffffff" xlink:href="#x5n1b"/></g><g><use fill="#ffffff" xlink:href="#x5n1c"/></g><g><use fill="#ffffff" xlink:href="#x5n1d"/></g><g><use fill="#ffffff" xlink:href="#x5n1e"/></g><g><use fill="#ffffff" xlink:href="#x5n1f"/></g><g><use fill="#ffffff" xlink:href="#x5n1g"/></g><g><use fill="#ffffff" xlink:href="#x5n1h"/></g><g><use fill="#ffffff" xlink:href="#x5n1i"/></g><g><g><use fill="#ffffff" xlink:href="#x5n1j"/></g><g><use fill="#ffffff" xlink:href="#x5n1d"/></g></g><g><use fill="#ffffff" xlink:href="#x5n1e"/></g><g><g><use fill="#ffffff" xlink:href="#x5n1f"/></g><g><use fill="#ffffff" xlink:href="#x5n1k"/></g></g><g><use fill="#ffffff" xlink:href="#x5n1j"/></g><g><g><use fill="#ffffff" xlink:href="#x5n1l"/></g><g><use fill="#ffffff" xlink:href="#x5n1m"/></g><g><use fill="#ffffff" xlink:href="#x5n1n"/></g><g><use fill="#ffffff" xlink:href="#x5n1o"/></g><g><use fill="#ffffff" xlink:href="#x5n1p"/></g><g><use fill="#ffffff" xlink:href="#x5n1q"/></g><g><use fill="#ffffff" xlink:href="#x5n1r"/></g></g></g></g></g></svg>