<svg xmlns="http://www.w3.org/2000/svg" xmlns:xlink="http://www.w3.org/1999/xlink" width="740" height="80" viewBox="0 0 185 20"><defs><path id="cp3ga" d="M172.098 597.73v-.245h.115c.036 0 .1-.005.131.017.03.017.052.06.052.097 0 .04-.016.088-.052.111-.036.021-.086.02-.129.02zm-.003.52v-.368h.152l.137.369h.23l-.162-.416a.25.25 0 0 0 .153-.238.293.293 0 0 0-.113-.236c-.066-.048-.152-.052-.228-.052h-.377v.942zm.143.366c-.43 0-.784-.372-.784-.829 0-.454.354-.824.784-.824.431 0 .784.37.784.824 0 .457-.353.83-.784.83zm-1.028-.829c0 .602.463 1.088 1.027 1.088.569 0 1.026-.486 1.026-1.088 0-.6-.458-1.087-1.026-1.087-.564 0-1.027.486-1.027 1.087z"/><path id="cp3gb" d="M156.514 590.563l-.281 1.843c-.61-.327-1.06-.455-1.54-.455-1.279 0-2.184 1.31-2.184 3.18 0 1.291.608 2.07 1.607 2.07.424 0 .89-.138 1.46-.439l-.3 1.94c-.63.183-1.042.248-1.52.248-1.853 0-3.006-1.408-3.006-3.668 0-3.04 1.593-5.162 3.872-5.162.294 0 .557.029.771.091l.709.187c.21.084.258.097.412.165z"/><path id="cp3gc" d="M150.808 591.828a.939.939 0 0 0-.175-.018c-.567 0-.887.302-1.413 1.125l.153-1.05h-1.557l-1.056 6.91h1.727c.618-4.223.776-4.953 1.604-4.953.05 0 .055 0 .126.007.153-.832.362-1.445.65-2.003l-.059-.018z"/><path id="cp3gd" d="M140.52 598.711c-.467.157-.837.228-1.233.228-.878 0-1.357-.538-1.357-1.52 0-.192.014-.4.049-.62l.106-.673.08-.55.745-4.716h1.709l-.196 1.025h.88l-.242 1.68h-.877l-.454 2.884c-.016.128-.03.222-.03.286 0 .354.18.513.586.513.199 0 .348-.021.463-.065l-.23 1.528z"/><path id="cp3ge" d="M133.744 594.066c0 .872.399 1.475 1.302 1.926.692.347.802.448.802.762 0 .43-.307.629-.983.629-.51 0-.987-.086-1.537-.277l-.238 1.594.078.016.315.068c.102.022.251.041.448.062.41.039.725.057.947.057 1.803 0 2.638-.733 2.638-2.307 0-.945-.348-1.505-1.207-1.923-.717-.344-.799-.426-.799-.746 0-.375.285-.568.837-.568.337 0 .793.04 1.23.103l.244-1.596a10.66 10.66 0 0 0-1.508-.136c-1.913 0-2.577 1.06-2.57 2.336z"/><path id="cp3gf" d="M167.674 597.161c.803 0 1.365-.96 1.365-2.328 0-.878-.32-1.357-.915-1.357-.779 0-1.332.965-1.332 2.324 0 .905.298 1.361.882 1.361zm2.537 1.627h-1.627l.086-.677c-.474.535-.96.768-1.589.768-1.257 0-2.081-1.14-2.081-2.868 0-2.299 1.28-4.24 2.8-4.24.669 0 1.174.292 1.65.947l.374-2.428h1.694l-1.307 8.498z"/><path id="cp3gg" d="M145 594.54c.01-.145.013-.264.013-.352 0-.569-.303-.9-.814-.9-.546 0-.936.443-1.096 1.247l1.897.005zm.965 4.109a5.656 5.656 0 0 1-1.766.277c-1.917 0-2.919-1.062-2.919-3.093 0-2.375 1.274-4.123 3.006-4.123 1.412 0 2.32.98 2.32 2.515 0 .509-.061 1.004-.214 1.705h-3.419a1.383 1.383 0 0 0-.016.214c0 .808.511 1.215 1.512 1.215.613 0 1.165-.134 1.783-.44l-.287 1.73z"/><path id="cp3gh" d="M126.846 598.788h-1.718l.984-6.53-2.198 6.53h-1.177l-.142-6.492-1.036 6.492h-1.609l1.342-8.498h2.475l.068 5.259 1.671-5.259h2.671l-1.331 8.498z"/><path id="cp3gi" d="M132.516 598.796h-1.423l.03-.717c-.433.572-1.013.837-1.8.837-.935 0-1.573-.77-1.573-1.883 0-1.687 1.115-2.666 3.021-2.666.195 0 .444.015.7.051a1.8 1.8 0 0 0 .068-.448c0-.457-.3-.63-1.105-.63-.486 0-1.044.075-1.43.197l-.238.07-.15.045.236-1.55c.858-.268 1.423-.372 2.06-.372 1.477 0 2.26.702 2.26 2.026 0 .344-.025.6-.142 1.371l-.36 2.449-.058.442-.044.352-.03.24-.022.186zm-1.24-3.084a2.875 2.875 0 0 0-.387-.03c-.979 0-1.475.359-1.475 1.06 0 .432.244.707.62.707.704 0 1.213-.707 1.242-1.737z"/><path id="cp3gj" d="M160.729 598.796h-1.426l.033-.717c-.433.572-1.014.837-1.8.837-.935 0-1.576-.77-1.576-1.883 0-1.687 1.114-2.666 3.024-2.666.194 0 .445.015.699.051.052-.229.068-.327.068-.448 0-.457-.299-.63-1.104-.63-.49 0-1.046.075-1.428.197l-.244.07-.149.045.24-1.55c.859-.268 1.423-.372 2.055-.372 1.48 0 2.262.702 2.262 2.026 0 .344-.03.6-.14 1.371l-.363 2.449-.053.442-.048.352-.032.24-.018.186zm-1.245-3.084a2.819 2.819 0 0 0-.383-.03c-.98 0-1.476.359-1.476 1.06 0 .432.246.707.622.707.704 0 1.206-.707 1.237-1.737z"/><path id="cp3gk" d="M165.531 591.828a.852.852 0 0 0-.172-.018c-.565 0-.888.302-1.416 1.125l.153-1.05h-1.555l-1.051 6.91h1.722c.618-4.223.78-4.953 1.603-4.953.053 0 .05-.005.12.007.156-.832.366-1.445.655-2.003l-.059-.018z"/><path id="cp3gl" d="M160.007 605.527c0-1.742-.854-3.097-2.46-3.097-1.85 0-3.047 1.648-3.047 4.075 0 1.737.708 3.157 2.458 3.157 1.767 0 3.05-1.26 3.05-4.135zm-1.69-.025c0 1.57-.482 2.495-1.241 2.495-.555.017-.89-.606-.89-1.539 0-1.103.49-2.353 1.278-2.353.633 0 .852.677.852 1.397z"/><path id="cp3gm" d="M155.056 601.205l-.262 1.841c-.572-.324-.988-.46-1.437-.46-1.201 0-2.04 1.316-2.04 3.186 0 1.291.561 2.072 1.497 2.072.4 0 .836-.137 1.366-.438l-.278 1.939c-.594.184-.982.247-1.423.247-1.731 0-2.809-1.408-2.809-3.669 0-3.04 1.488-5.163 3.619-5.163.276 0 .52.035.722.091l.657.188c.203.081.245.096.388.166z"/><path id="cp3gn" d="M144.423 602.47a.625.625 0 0 0-.165-.02c-.52 0-.827.303-1.315 1.123l.142-1.048h-1.454l-.981 6.911h1.605c.577-4.227.73-4.955 1.5-4.955.046 0 .05 0 .117.008.145-.836.34-1.449.61-2.008l-.059-.012z"/><path id="cp3go" d="M163.024 607.74c.759 0 1.282-.96 1.282-2.328 0-.881-.299-1.354-.853-1.354-.732 0-1.253.96-1.253 2.325 0 .9.28 1.357.824 1.357zm2.374 1.626h-1.517l.078-.675c-.441.532-.9.768-1.487.768-1.17 0-1.942-1.143-1.942-2.87 0-2.295 1.199-4.241 2.616-4.241.625 0 1.1.297 1.538.952l.354-2.43h1.58l-1.22 8.496z"/><path id="cp3gp" d="M128.485 605.223c.008-.146.012-.263.012-.351 0-.564-.283-.894-.763-.894-.516 0-.882.444-1.03 1.238l1.781.007zm.888 4.112a4.91 4.91 0 0 1-1.645.281c-1.792 0-2.728-1.064-2.728-3.095 0-2.371 1.19-4.121 2.806-4.121 1.323 0 2.167.978 2.167 2.513 0 .508-.058 1.005-.195 1.706h-3.2c-.009.103-.013.154-.013.215 0 .805.48 1.212 1.41 1.212.574 0 1.093-.135 1.668-.438l-.27 1.727z"/><path id="cp3gq" d="M147.563 605.223c.011-.146.017-.263.017-.351 0-.564-.284-.894-.76-.894-.512 0-.876.444-1.025 1.238l1.768.007zm.903 4.112a4.93 4.93 0 0 1-1.645.281c-1.797 0-2.731-1.064-2.731-3.095 0-2.371 1.192-4.121 2.806-4.121 1.323 0 2.17.978 2.17 2.513 0 .508-.06 1.005-.202 1.706h-3.193c-.01.103-.015.154-.015.215 0 .805.478 1.212 1.409 1.212.574 0 1.094-.135 1.669-.438l-.268 1.727z"/><path id="cp3gr" d="M169.965 605.223c.007-.146.012-.263.012-.351 0-.564-.28-.894-.756-.894-.511 0-.873.444-1.021 1.238l1.765.007zm.905 4.112c-.555.19-1.08.281-1.65.281-1.792 0-2.73-1.064-2.73-3.095 0-2.371 1.194-4.121 2.808-4.121 1.323 0 2.166.978 2.166 2.513 0 .508-.055 1.005-.197 1.706h-3.196a1.779 1.779 0 0 0-.013.215c0 .805.48 1.212 1.41 1.212.575 0 1.092-.135 1.669-.438l-.267 1.727z"/><path id="cp3gs" d="M124.625 602.78a2.316 2.316 0 0 0-1.34-.397c-.65 0-1.172.136-1.172.83 0 1.229 2.366.77 2.366 3.4 0 2.394-1.562 3.015-2.974 3.015-.629 0-1.352-.21-1.885-.448l.384-1.76c.321.295.97.496 1.5.496.506 0 1.299-.139 1.299-1.027 0-1.392-2.365-.874-2.365-3.316 0-2.234 1.381-2.903 2.714-2.903.75 0 1.455.11 1.869.388l-.396 1.722z"/><path id="cp3gt" d="M134.069 609.33c-.331.16-.773.266-1.426.266-1.403 0-2.273-1.412-2.273-3.131 0-2.25 1.259-4.045 3.11-4.045.405 0 1.022.176 1.508.46l-.355 1.65c-.344-.227-.703-.372-1.072-.372-.858 0-1.471.792-1.471 2.21 0 .818.444 1.488 1.147 1.488.418 0 .712-.089 1.072-.3l-.24 1.774z"/><path id="cp3gu" d="M140.08 607.605a27.432 27.432 0 0 0-.204 1.792h-1.545l.13-1.117h-.015c-.484.759-.985 1.276-1.86 1.276-.97 0-1.496-1.028-1.496-2.37 0-.463.029-.725.131-1.447l.438-3.199h1.72l-.462 3.208c-.047.345-.112.687-.112 1.043 0 .405.183.814.646.788.705 0 1.121-.868 1.24-1.88l.474-3.159h1.665l-.75 5.065z"/><path id="cp3gv" d="M172.476 609.312h-.26v-1.146h-.376v-.246h1.012v.246h-.376v1.146z"/><path id="cp3gw" d="M174.196 609.312h-.243v-1.164h-.003l-.233 1.164h-.254l-.227-1.164h-.004v1.164h-.242v-1.392h.38l.225 1.097h.003l.222-1.097h.376v1.392z"/><path id="cp3gx" d="M218.682 598.863c.17.115.424.2.679.2.396 0 .623-.2.623-.514 0-.286-.17-.429-.567-.6-.48-.172-.792-.43-.792-.858 0-.458.396-.801.962-.801.312 0 .51.057.651.143l-.113.315a1.057 1.057 0 0 0-.566-.143c-.396 0-.566.257-.566.457 0 .286.17.429.594.572.51.2.736.429.736.886 0 .458-.34.858-1.019.858-.283 0-.594-.086-.764-.2l.142-.315"/><path id="cp3gy" d="M222.25 598.064c0-.258-.113-.63-.538-.63-.396 0-.566.372-.594.63zm-1.132.257c0 .515.34.743.736.743.283 0 .453-.057.594-.114l.057.286a1.777 1.777 0 0 1-.708.143c-.65 0-1.047-.429-1.047-1.087 0-.657.396-1.172.99-1.172.68 0 .878.63.878 1v.2h-1.5z"/><path id="cp3gz" d="M224.63 599.266c-.113.057-.34.114-.623.114-.65 0-1.047-.429-1.047-1.086 0-.658.453-1.144 1.132-1.144.227 0 .425.057.538.114l-.085.286c-.085-.057-.226-.114-.453-.114-.481 0-.764.372-.764.83 0 .485.311.8.736.8a.991.991 0 0 0 .481-.115l.085.315"/><path id="cp3gA" d="M226.833 598.751c0 .229 0 .43.029.572h-.34l-.028-.343c-.085.172-.34.4-.708.4-.34 0-.736-.2-.736-.943v-1.258h.396v1.172c0 .4.142.686.481.686a.527.527 0 0 0 .51-.372c.028-.057.028-.114.028-.2v-1.315h.397v1.601"/><path id="cp3gB" d="M227.488 597.866c0-.257 0-.457-.028-.657h.34l.028.429a.63.63 0 0 1 .594-.458h.114v.372h-.142c-.283 0-.453.2-.51.486V599.382h-.396v-1.516"/><path id="cp3gC" d="M229.333 599.36h-.37v-2.155h.399v2.155zm-.198-2.555a.255.255 0 0 1-.255-.258.255.255 0 1 1 .51 0c0 .143-.086.258-.255.258z"/><path id="cp3gD" d="M230.428 596.69v.515h.566v.286h-.566v1.172c0 .257.085.429.283.429.113 0 .17 0 .226-.029l.028.286a1.046 1.046 0 0 1-.34.057.573.573 0 0 1-.424-.171c-.113-.115-.141-.315-.141-.572v-1.172h-.34v-.286h.34v-.4l.368-.115"/><path id="cp3gE" d="M231.621 597.209l.453 1.258c.057.143.113.314.142.429.028-.115.085-.286.141-.458l.425-1.258h.396l-.594 1.544c-.283.743-.453 1.115-.736 1.344a1.127 1.127 0 0 1-.482.257l-.084-.314a.867.867 0 0 0 .34-.2c.112-.086.226-.23.31-.43.029-.028.029-.057.029-.085 0-.029 0-.057-.028-.086l-.793-1.973h.481"/><path id="cp3gF" d="M218.682 603.293c.17.115.424.2.679.2.396 0 .623-.2.623-.514 0-.286-.17-.429-.567-.6-.48-.172-.792-.43-.792-.858 0-.458.396-.801.962-.801.312 0 .51.057.651.143l-.113.314a1.057 1.057 0 0 0-.566-.142c-.396 0-.566.257-.566.457 0 .286.17.429.594.572.51.2.736.429.736.886 0 .458-.34.858-1.019.858-.283 0-.594-.086-.764-.2l.142-.315"/><path id="cp3gG" d="M221.318 601.12v.515h.566v.286h-.566v1.143c0 .258.085.43.283.43.113 0 .17 0 .226-.03l.028.287a1.046 1.046 0 0 1-.34.057.573.573 0 0 1-.424-.172c-.113-.114-.141-.314-.141-.572v-1.172h-.34v-.286h.34v-.4l.368-.086"/><path id="cp3gH" d="M223.434 602.697c-.42 0-.896.056-.896.48 0 .254.168.367.364.367.28 0 .448-.17.504-.367 0-.028.028-.085.028-.113v-.367zm.378.571c0 .2 0 .372.028.515h-.34l-.028-.257c-.113.171-.34.314-.651.314a.62.62 0 0 1-.651-.629c0-.514.453-.8 1.274-.8v-.058c0-.171-.057-.514-.481-.486-.199 0-.397.058-.567.172l-.084-.257c.17-.115.424-.172.707-.172.651 0 .821.458.821.886v.772z"/><path id="cp3gI" d="M224.428 602.21c0-.23 0-.401-.028-.573h.34l.028.343c.113-.2.34-.4.708-.4.283 0 .764.172.764.915v1.287h-.396v-1.23c0-.343-.142-.629-.482-.629a.52.52 0 0 0-.51.4c-.027.058-.027.115-.027.172v1.287h-.397v-1.573"/><path id="cp3gJ" d="M228.307 602.499c0-.058 0-.115-.028-.172a.557.557 0 0 0-.567-.457c-.396 0-.65.343-.65.829 0 .429.226.8.622.8.255 0 .481-.171.566-.457.029-.057.029-.115.029-.172v-.371zm.396-1.859v2.602c0 .2 0 .4.028.543h-.34l-.028-.371a.785.785 0 0 1-.707.428c-.51 0-.906-.428-.906-1.086 0-.715.453-1.144.962-1.144.34 0 .538.143.651.315v-1.287h.34z"/><path id="cp3gK" d="M230.455 602.697c-.424 0-.905.056-.905.48 0 .254.17.367.368.367.283 0 .453-.17.51-.367 0-.028.027-.085.027-.113v-.367zm.397.571c0 .2 0 .372.028.515h-.34l-.028-.257c-.113.171-.34.314-.651.314a.62.62 0 0 1-.651-.629c0-.514.453-.8 1.274-.8v-.058c0-.171-.057-.514-.481-.486-.199 0-.397.058-.567.172l-.084-.257c.17-.115.424-.172.707-.172.651 0 .821.458.821.886v.772z"/><path id="cp3gL" d="M231.478 602.296c0-.257 0-.457-.028-.657h.34l.028.429h.028a.63.63 0 0 1 .595-.458h.113v.372h-.142c-.283 0-.452.2-.51.486V603.812h-.395l-.029-1.516"/><path id="cp3gM" d="M234.323 602.499c0-.058 0-.115-.028-.172a.576.576 0 0 0-.561-.457c-.393 0-.618.343-.618.829 0 .429.225.8.618.8a.57.57 0 0 0 .561-.457c0-.057.028-.115.028-.172zm.378-1.859v2.602c0 .2 0 .4.029.543h-.34l-.028-.371c-.113.228-.368.428-.736.428-.51 0-.906-.428-.906-1.086 0-.715.425-1.144.962-1.144.34 0 .538.143.651.315v-1.287h.368z"/><path id="cp3gN" d="M235.305 603.381c.113.086.311.143.51.143.282 0 .396-.143.396-.314 0-.2-.114-.286-.397-.4-.396-.143-.566-.344-.566-.6 0-.344.283-.63.736-.63.227 0 .396.057.51.143l-.085.286a.758.758 0 0 0-.425-.114c-.226 0-.34.143-.34.285 0 .172.114.258.397.372.368.143.566.315.566.658 0 .372-.283.657-.793.657-.226 0-.452-.057-.594-.142l.085-.344"/><path id="cp3gO" d="M240.114 603.695a2.173 2.173 0 0 1-.792.143c-.821 0-1.472-.543-1.472-1.515 0-.944.623-1.573 1.557-1.573.368 0 .594.086.707.143l-.084.314a1.566 1.566 0 0 0-.595-.114c-.708 0-1.16.458-1.16 1.23 0 .743.424 1.2 1.132 1.2.226 0 .481-.057.623-.114l.084.286"/><path id="cp3gP" d="M241.39 603.514c.368 0 .652-.34.652-.824 0-.37-.17-.824-.653-.824-.454 0-.653.426-.653.824.029.483.284.824.653.824zm-.001.325c-.566 0-1.019-.429-1.019-1.115 0-.715.481-1.144 1.047-1.144.623 0 1.02.458 1.02 1.087 0 .8-.539 1.172-1.048 1.172z"/><path id="cp3gQ" d="M244.693 603.181c0 .229 0 .43.029.572h-.34l-.028-.343c-.085.172-.34.4-.708.4-.34 0-.736-.2-.736-.943v-1.258h.396v1.172c0 .4.113.686.481.686.255 0 .425-.171.51-.372.028-.057.028-.114.028-.2v-1.315h.397v1.601"/><path id="cp3gR" d="M245.348 602.21c0-.23 0-.401-.028-.573h.34l.028.343c.113-.2.34-.4.708-.4.283 0 .764.172.764.915v1.287h-.396v-1.23c0-.343-.142-.629-.482-.629a.52.52 0 0 0-.51.4c-.027.058-.027.115-.027.172v1.287h-.397v-1.573"/><path id="cp3gS" d="M249.31 603.696c-.113.057-.311.114-.623.114-.65 0-1.047-.429-1.047-1.086 0-.658.453-1.144 1.132-1.144.227 0 .425.057.538.114l-.085.286c-.085-.057-.226-.114-.453-.114-.481 0-.764.372-.764.83 0 .485.311.8.736.8a.991.991 0 0 0 .481-.115l.085.315"/><path id="cp3gT" d="M250.123 603.79h-.386v-2.155h.386zm-.188-2.555a.255.255 0 0 1-.255-.258.255.255 0 1 1 .51 0c0 .143-.085.258-.255.258z"/><path id="cp3gU" d="M250.78 603.79v-3.15h.4v3.15z"/><path id="cp3gV" d="M216.703 602.352l-22.73 7.206-6.623-18.214L211.212 590l5.491 12.352"/><path id="cp3gW" d="M196.684 598.718c0-.686-.507-1.03-1.492-1.03h-.366v2.088h.337c.479 0 .873-.086 1.127-.258.253-.143.394-.429.394-.8zm2.84-.029c0 .458-.113.858-.311 1.23a2.526 2.526 0 0 1-.85.886c-.367.229-.82.4-1.33.515a7.852 7.852 0 0 1-1.726.171h-.453v2.345h-2.944v-7.806h3.453c1.302 0 2.321.229 3.057.658.736.429 1.104 1.115 1.104 2.001z"/><path id="cp3gX" d="M206.827 603.84a8.267 8.267 0 0 1-1.557.143c-.82 0-1.557-.085-2.18-.286-.65-.2-1.188-.457-1.641-.8a3.335 3.335 0 0 1-1.02-1.258 4.04 4.04 0 0 1-.339-1.659c0-.6.113-1.143.368-1.658a4.103 4.103 0 0 1 1.047-1.287c.453-.343.991-.629 1.614-.83.622-.2 1.302-.285 2.038-.285.566 0 1.104.029 1.585.114.481.115.481.115.85.258v2.087a3.435 3.435 0 0 0-.992-.4 3.934 3.934 0 0 0-1.16-.172c-.68 0-1.217.2-1.642.543-.425.372-.623.887-.623 1.602 0 .343.057.657.198.943.142.258.312.486.538.658.227.171.482.314.793.4.311.086.623.143.962.143.34 0 .708-.028 1.048-.114.34-.086.707-.172 1.075-.343v1.973c-.453.114-.51.143-.962.228"/><path id="cp3gY" d="M209 603.86v-7.83h2.97v7.83z"/><path id="cp3gZ" d="M212.287 593.576c0 .514-.17.943-.51 1.23a1.93 1.93 0 0 1-1.274.457c-.51 0-.934-.143-1.273-.458-.34-.286-.51-.715-.51-1.23 0-.543.17-.943.51-1.258.34-.314.764-.457 1.273-.457.51 0 .934.143 1.274.458.34.285.51.714.51 1.258"/><path id="cp3gaa" d="M250.275 596.778h.083c.082 0 .137.055.137.11s-.055.083-.137.083h-.083zm-.06.657v-.343h.085c.084 0 .112.029.14.115.029.057.029.143.057.171h.28c-.027-.028-.027-.086-.056-.2-.028-.114-.084-.172-.168-.2.112-.029.197-.086.197-.172s-.029-.143-.085-.171a.646.646 0 0 0-.309-.058c-.168 0-.309.03-.365.03v.828zm.113-1.086a.64.64 0 0 1 .649.652c0 .37-.254.653-.621.653a.635.635 0 0 1-.621-.653c0-.368.254-.652.593-.652zm.028-.229c-.51 0-.906.4-.906.886s.396.887.906.887.906-.4.906-.887a.893.893 0 0 0-.906-.886z"/><path id="cp3gab" d="M69.127 596.896l-2.067-6.386h.886l.99 3.14c.275.87.507 1.633.676 2.397h.02c.17-.743.443-1.549.718-2.376l1.075-3.161h.886l-2.278 6.386h-.906z"/><path id="cp3gac" d="M75.187 594.153c.021-.526-.211-1.348-1.161-1.348-.845 0-1.204.78-1.268 1.348zm-2.427.604c.021 1.124.738 1.591 1.56 1.591.591 0 .95-.106 1.266-.233l.147.594c-.295.127-.8.275-1.518.275-1.413 0-2.235-.933-2.235-2.312 0-1.379.801-2.482 2.13-2.482 1.497 0 1.876 1.315 1.876 2.164 0 .17-.02.297-.02.382l-3.206.021z"/><path id="cp3gad" d="M76.632 593.737c0-.53 0-.997-.042-1.42h.717l.021.89h.042c.211-.615.717-.997 1.265-.997.085 0 .17 0 .232.021v.785c-.084-.021-.168-.021-.274-.021-.59 0-.99.445-1.117 1.06a2.114 2.114 0 0 0-.043.383v2.44h-.822v-3.14z"/><path id="cp3gae" d="M79.377 592.312h.82v4.595h-.82zm.926-1.287c0 .278-.19.513-.527.513a.503.503 0 0 1-.506-.513c0-.3.21-.535.527-.535.295 0 .506.235.506.535z"/><path id="cp3gaf" d="M81.293 596.891v-3.946h-.633v-.636h.633v-.212c0-.637.147-1.23.527-1.613a1.606 1.606 0 0 1 1.117-.424c.296 0 .549.064.717.127l-.105.637a1.156 1.156 0 0 0-.527-.106c-.696 0-.886.615-.886 1.336v.255h1.097v.636h-1.097v3.946z"/><path id="cp3gag" d="M84.017 592.312h.82v4.595h-.82zm.926-1.287c.021.278-.19.513-.527.513a.503.503 0 0 1-.506-.513c0-.3.21-.535.527-.535.316 0 .506.235.506.535z"/><path id="cp3gah" d="M88.757 594.153c0-.526-.212-1.348-1.166-1.348-.849 0-1.21.78-1.273 1.348zm-2.437.604c.021 1.124.738 1.591 1.56 1.591.591 0 .95-.106 1.266-.233l.147.594c-.295.127-.8.275-1.518.275-1.413 0-2.235-.933-2.235-2.312 0-1.379.801-2.482 2.13-2.482 1.497 0 1.876 1.315 1.876 2.164 0 .17-.02.297-.02.382l-3.206.021z"/><path id="cp3gai" d="M93.327 594.18c0-.107 0-.255-.042-.361-.127-.53-.572-.976-1.207-.976-.868 0-1.376.764-1.376 1.782 0 .933.445 1.697 1.355 1.697.55 0 1.059-.36 1.228-.997.021-.106.042-.233.042-.36zm.813-4.01v5.537c0 .403 0 .87.042 1.188h-.738l-.043-.806h-.02c-.254.509-.802.89-1.561.89-1.097 0-1.94-.933-1.94-2.333 0-1.527.928-2.46 2.045-2.46.696 0 1.16.339 1.371.7h.021v-2.716z"/><path id="cp3gaj" d="M98.063 595.05c0 .105.02.211.042.296.169.573.633.976 1.246.976.866 0 1.393-.721 1.393-1.76 0-.913-.464-1.698-1.351-1.698-.57 0-1.098.382-1.267 1.019a1.482 1.482 0 0 0-.042.339v.827h-.021zm-.863 1.845c.021-.318.042-.785.042-1.188v-5.537h.823v2.885h.02c.296-.509.823-.848 1.561-.848 1.139 0 1.94.954 1.919 2.333 0 1.634-1.033 2.461-2.045 2.461-.654 0-1.181-.254-1.519-.87h-.02l-.043.764z"/><path id="cp3gak" d="M102.467 592.31l.99 2.715c.106.297.212.658.296.934h.021c.084-.276.169-.637.295-.955l.907-2.694h.886l-1.244 3.267c-.59 1.57-.991 2.376-1.56 2.864-.401.36-.802.51-1.013.53l-.21-.7c.21-.063.484-.19.716-.403.232-.17.506-.509.696-.933a.49.49 0 0 0 .063-.191.695.695 0 0 0-.063-.212l-1.687-4.222h.907z"/><path id="cp3gal" d="M80.814 600.01l-2.509 6.386-1.012-5.431c-.127-.616-.59-.955-1.118-.955h-4.112l-.063.276c.843.19 1.792.488 2.383.806.358.19.464.36.57.827l1.918 7.49h2.573l3.922-9.399h-2.552z"/><path id="cp3gam" d="M84.393 600.01l-2.003 9.398h2.425l1.982-9.398z"/><path id="cp3gan" d="M89.981 602.62c0-.34.338-.701 1.034-.786.337-.042 1.307-.085 2.383.424l.421-1.994c-.59-.212-1.328-.424-2.256-.424-2.383 0-4.07 1.273-4.09 3.119-.022 1.357 1.201 2.1 2.108 2.545.949.467 1.265.743 1.244 1.167 0 .637-.76.912-1.434.912-1.223.022-1.919-.34-2.488-.594l-.443 2.058c.57.255 1.603.488 2.678.488 2.53 0 4.196-1.252 4.196-3.225.042-2.44-3.374-2.588-3.352-3.69"/><path id="cp3gao" d="M97.89 600.011c-.464 0-.864.276-1.033.68l-3.627 8.697h2.53l.507-1.4h3.1l.294 1.4h2.236l-1.94-9.398H97.89v.021zm-.928 6.068l1.293-3.522.72 3.522z"/></defs><g><g opacity=".7" transform="translate(-67 -590)"><g opacity=".7"><g opacity=".7"><g opacity=".7"><use fill="#ec2127" xlink:href="#cp3ga"/></g><g opacity=".7"><use fill="#ec2127" xlink:href="#cp3gb"/></g><g opacity=".7"><use fill="#ec2127" xlink:href="#cp3gc"/></g><g opacity=".7"><use fill="#ec2127" xlink:href="#cp3gd"/></g><g opacity=".7"><use fill="#ec2127" xlink:href="#cp3ge"/></g><g opacity=".7"><use fill="#ec2127" xlink:href="#cp3gf"/></g><g opacity=".7"><use fill="#ec2127" xlink:href="#cp3gg"/></g><g opacity=".7"><use fill="#ec2127" xlink:href="#cp3gh"/></g><g opacity=".7"><use fill="#ec2127" xlink:href="#cp3gi"/></g><g opacity=".7"><use fill="#ec2127" xlink:href="#cp3gj"/></g><g opacity=".7"><use fill="#ec2127" xlink:href="#cp3gk"/></g></g><g opacity=".7"><g opacity=".7"><use fill="#f89620" xlink:href="#cp3gl"/></g><g opacity=".7"><use fill="#f89620" xlink:href="#cp3gm"/></g><g opacity=".7"><use fill="#f89620" xlink:href="#cp3gn"/></g><g opacity=".7"><use fill="#f89620" xlink:href="#cp3go"/></g><g opacity=".7"><use fill="#f89620" xlink:href="#cp3gp"/></g><g opacity=".7"><use fill="#f89620" xlink:href="#cp3gq"/></g><g opacity=".7"><use fill="#f89620" xlink:href="#cp3gr"/></g><g opacity=".7"><use fill="#f89620" xlink:href="#cp3gs"/></g><g opacity=".7"><use fill="#f89620" xlink:href="#cp3gt"/></g><g opacity=".7"><use fill="#f89620" xlink:href="#cp3gu"/></g><g opacity=".7"><g opacity=".7"><use fill="#f89620" xlink:href="#cp3gv"/></g><g opacity=".7"><use fill="#f89620" xlink:href="#cp3gw"/></g></g></g></g><g opacity=".7"><g opacity=".7"><g opacity=".7"><use fill="#02797e" xlink:href="#cp3gx"/></g><g opacity=".7"><use fill="#02797e" xlink:href="#cp3gy"/></g><g opacity=".7"><use fill="#02797e" xlink:href="#cp3gz"/></g><g opacity=".7"><use fill="#02797e" xlink:href="#cp3gA"/></g><g opacity=".7"><use fill="#02797e" xlink:href="#cp3gB"/></g><g opacity=".7"><use fill="#02797e" xlink:href="#cp3gC"/></g><g opacity=".7"><use fill="#02797e" xlink:href="#cp3gD"/></g><g opacity=".7"><use fill="#02797e" xlink:href="#cp3gE"/></g><g opacity=".7"><use fill="#02797e" xlink:href="#cp3gF"/></g><g opacity=".7"><use fill="#02797e" xlink:href="#cp3gG"/></g><g opacity=".7"><use fill="#02797e" xlink:href="#cp3gH"/></g><g opacity=".7"><use fill="#02797e" xlink:href="#cp3gI"/></g><g opacity=".7"><use fill="#02797e" xlink:href="#cp3gJ"/></g><g opacity=".7"><use fill="#02797e" xlink:href="#cp3gK"/></g><g opacity=".7"><use fill="#02797e" xlink:href="#cp3gL"/></g><g opacity=".7"><use fill="#02797e" xlink:href="#cp3gM"/></g><g opacity=".7"><use fill="#02797e" xlink:href="#cp3gN"/></g><g opacity=".7"><use fill="#02797e" xlink:href="#cp3gO"/></g><g opacity=".7"><use fill="#02797e" xlink:href="#cp3gP"/></g><g opacity=".7"><use fill="#02797e" xlink:href="#cp3gQ"/></g><g opacity=".7"><use fill="#02797e" xlink:href="#cp3gR"/></g><g opacity=".7"><use fill="#02797e" xlink:href="#cp3gS"/></g><g opacity=".7"><use fill="#02797e" xlink:href="#cp3gT"/></g><g opacity=".7"><use fill="#02797e" xlink:href="#cp3gU"/></g><g opacity=".7"><use fill="#02797e" xlink:href="#cp3gV"/></g><g opacity=".7"><use fill="#fff" xlink:href="#cp3gW"/></g><g opacity=".7"><use fill="#fff" xlink:href="#cp3gX"/></g><g opacity=".7"><use fill="#fff" xlink:href="#cp3gY"/></g><g opacity=".7"><use fill="#fff" xlink:href="#cp3gZ"/></g></g><g opacity=".7"><use fill="#02797e" xlink:href="#cp3gaa"/></g></g><g opacity=".7"><g opacity=".7"><g opacity=".7"><use fill="#1a1f71" xlink:href="#cp3gab"/></g><g opacity=".7"><use fill="#1a1f71" xlink:href="#cp3gac"/></g><g opacity=".7"><use fill="#1a1f71" xlink:href="#cp3gad"/></g><g opacity=".7"><use fill="#1a1f71" xlink:href="#cp3gae"/></g><g opacity=".7"><use fill="#1a1f71" xlink:href="#cp3gaf"/></g><g opacity=".7"><use fill="#1a1f71" xlink:href="#cp3gag"/></g><g opacity=".7"><use fill="#1a1f71" xlink:href="#cp3gah"/></g><g opacity=".7"><use fill="#1a1f71" xlink:href="#cp3gai"/></g><g opacity=".7"><use fill="#1a1f71" xlink:href="#cp3gaj"/></g><g opacity=".7"><use fill="#1a1f71" xlink:href="#cp3gak"/></g></g><g opacity=".7"><g opacity=".7"><use fill="#1a1f71" xlink:href="#cp3gal"/></g><g opacity=".7"><use fill="#1a1f71" xlink:href="#cp3gam"/></g><g opacity=".7"><use fill="#1a1f71" xlink:href="#cp3gan"/></g><g opacity=".7"><use fill="#1a1f71" xlink:href="#cp3gao"/></g></g></g></g></g></svg>