<svg xmlns="http://www.w3.org/2000/svg" width="281" height="30" viewBox="0 0 281 30">
    <defs>
        <linearGradient id="a" x1=".012%" x2="99.994%" y1="50%" y2="50%">
            <stop offset="0%" stop-color="#00A0E5"/>
            <stop offset="100%" stop-color="#0077C3"/>
        </linearGradient>
    </defs>
    <g fill="none" fill-rule="evenodd" opacity=".8">
        <g fill-rule="nonzero">
            <path fill="#231F20" d="M7.135 29.52v-1.817a1.055 1.055 0 0 0-.321-.832 1.144 1.144 0 0 0-.862-.318 1.179 1.179 0 0 0-1.057.515 1.116 1.116 0 0 0-.994-.515 1.007 1.007 0 0 0-.88.43v-.358h-.655v2.895h.66v-1.593a.662.662 0 0 1 .18-.55.719.719 0 0 1 .557-.219c.434 0 .654.273.654.763v1.611h.66v-1.605a.665.665 0 0 1 .182-.55.722.722 0 0 1 .555-.219c.447 0 .66.273.66.763v1.611l.661-.012zm9.775-2.895h-1.076v-.878h-.66v.878h-.598v.576h.61v1.332c0 .672.27 1.072 1.044 1.072.29.001.573-.077.818-.224l-.188-.539c-.176.1-.375.157-.58.163-.314 0-.433-.193-.433-.484v-1.32h1.07l-.007-.576zm5.581-.072a.895.895 0 0 0-.793.424v-.352h-.648v2.895h.655v-1.623c0-.478.214-.745.629-.745.14-.002.279.023.409.073l.201-.606a1.45 1.45 0 0 0-.465-.078l.012.012zm-8.438.303a2.318 2.318 0 0 0-1.227-.303c-.76 0-1.258.351-1.258.926 0 .473.365.763 1.038.854l.315.043c.358.048.528.139.528.302 0 .225-.239.352-.686.352-.359.01-.711-.097-1-.303l-.315.49c.382.257.838.388 1.303.376.868 0 1.372-.394 1.372-.945 0-.55-.397-.775-1.051-.866l-.315-.042c-.283-.037-.51-.091-.51-.285 0-.194.214-.339.573-.339.332.004.657.09.944.248l.29-.508zm17.527-.303a.895.895 0 0 0-.793.424v-.352h-.648v2.895h.655v-1.623c0-.478.214-.745.629-.745.14-.002.279.023.409.073l.201-.606a1.45 1.45 0 0 0-.465-.078l.012.012zm-8.431 1.514c-.016.411.15.81.454 1.098.306.288.723.44 1.15.416.393.019.78-.104 1.082-.345l-.314-.51a1.355 1.355 0 0 1-.787.261c-.501-.039-.888-.442-.888-.926 0-.485.387-.888.888-.927.285.003.56.095.787.26l.314-.508a1.613 1.613 0 0 0-1.082-.345 1.553 1.553 0 0 0-1.15.415c-.305.289-.47.687-.454 1.099v.012zm6.128 0v-1.442h-.654v.352a1.16 1.16 0 0 0-.944-.424c-.869 0-1.573.678-1.573 1.514s.704 1.514 1.573 1.514a1.16 1.16 0 0 0 .944-.424v.351h.654v-1.441zm-2.435 0c.03-.475.448-.841.942-.823.494.018.883.412.875.888-.008.476-.41.859-.904.861a.92.92 0 0 1-.667-.27.85.85 0 0 1-.246-.656zm-7.896-1.514c-.87.011-1.564.699-1.551 1.535.012.836.726 1.505 1.595 1.493.452.022.897-.118 1.249-.394l-.315-.466a1.466 1.466 0 0 1-.875.303c-.45.037-.848-.277-.9-.709h2.234v-.242c0-.909-.585-1.514-1.428-1.514l-.01-.006zm0 .563a.762.762 0 0 1 .531.2.705.705 0 0 1 .23.502h-1.573c.024-.404.378-.716.799-.702h.013zm16.394.957v-2.61h-.63v1.514a1.16 1.16 0 0 0-.943-.424c-.869 0-1.573.678-1.573 1.514s.704 1.514 1.573 1.514a1.16 1.16 0 0 0 .944-.424v.351h.629v-1.435zm1.092 1.026a.316.316 0 0 1 .217.082.272.272 0 0 1 0 .406.316.316 0 0 1-.098.06.316.316 0 0 1-.403-.151.275.275 0 0 1 .066-.315.316.316 0 0 1 .227-.082h-.01zm0 .512a.23.23 0 0 0 .163-.067.218.218 0 0 0-.163-.369.244.244 0 0 0-.167.067.218.218 0 0 0 0 .302.24.24 0 0 0 .176.067h-.01zm.018-.36a.13.13 0 0 1 .082.024c.02.016.03.04.028.064.001.02-.007.04-.022.054a.112.112 0 0 1-.066.027l.092.1h-.073l-.085-.1h-.028v.1h-.06v-.266l.132-.003zm-.069.051v.073h.07a.069.069 0 0 0 .037 0 .03.03 0 0 0 0-.027.03.03 0 0 0 0-.028.069.069 0 0 0-.038 0l-.069-.018zm-3.46-1.23c.029-.474.447-.84.941-.822.494.018.883.413.875.888-.008.476-.41.859-.904.861a.92.92 0 0 1-.667-.27.85.85 0 0 1-.246-.656zm-22.095 0v-1.447h-.655v.352a1.16 1.16 0 0 0-.944-.424c-.868 0-1.573.678-1.573 1.514s.705 1.514 1.573 1.514a1.16 1.16 0 0 0 .944-.424v.351h.655v-1.435zm-2.436 0c.03-.474.448-.84.942-.822.494.018.883.413.875.888-.008.476-.41.859-.904.861a.92.92 0 0 1-.671-.269.85.85 0 0 1-.248-.657h.006z"/>
            <path fill="#FF5F00" d="M13.814 3.4h10.01V21.35h-10.01z"/>
            <path fill="#EB001B" d="M14.45 12.377A11.388 11.388 0 0 1 18.819 3.4C14.129-.28 7.393.257 3.346 4.63a11.399 11.399 0 0 0 0 15.49c4.047 4.374 10.783 4.91 15.473 1.232a11.388 11.388 0 0 1-4.37-8.975z"/>
            <path fill="#F79E1B" d="M37.33 12.377c0 4.371-2.502 8.358-6.442 10.268a11.46 11.46 0 0 1-12.069-1.293 11.407 11.407 0 0 0 4.371-8.976c0-3.503-1.611-6.812-4.371-8.976a11.46 11.46 0 0 1 12.07-1.294 11.414 11.414 0 0 1 6.44 10.268v.003zM36.245 19.998v-.823h.155v-.17h-.393v.17h.168v.823h.07zm.762 0v-.993h-.119l-.138.71-.139-.71h-.105v.993h.085v-.745l.129.646h.09l.128-.646v.752l.07-.007z"/>
        </g>
        <g fill-rule="nonzero">
            <path fill="#6C6BBD" d="M265.762 21.429h-10.476V2.857h10.476z"/>
            <path fill="#D32011" d="M255.915 11.905c0-3.797 1.802-7.18 4.609-9.36A12.12 12.12 0 0 0 253.066 0C246.402 0 241 5.33 241 11.905c0 6.575 5.402 11.905 12.066 11.905a12.12 12.12 0 0 0 7.458-2.546c-2.807-2.18-4.609-5.562-4.609-9.36"/>
            <path fill="#0099DF" d="M280.048 11.905c0 6.575-5.402 11.905-12.066 11.905-2.815 0-5.405-.952-7.458-2.546 2.807-2.18 4.61-5.562 4.61-9.36 0-3.796-1.803-7.179-4.61-9.359A12.122 12.122 0 0 1 267.982 0c6.664 0 12.066 5.33 12.066 11.905"/>
            <path fill="#110F0D" d="M269.588 26.607c.14 0 .34.027.495.088l-.215.658a1.121 1.121 0 0 0-.434-.08c-.454 0-.682.294-.682.825v1.8h-.695v-3.21h.688v.39c.181-.282.442-.47.843-.47zm-2.57.719h-1.135v1.45c0 .322.113.538.461.538.18 0 .408-.061.614-.182l.2.597c-.22.155-.567.25-.867.25-.823 0-1.11-.444-1.11-1.19v-1.463h-.648v-.638h.648v-.974h.702v.974h1.136v.638zm-8.895.685c.074-.464.354-.78.849-.78.447 0 .735.283.808.78h-1.657zm2.38.282c-.007-1-.622-1.686-1.518-1.686-.936 0-1.59.685-1.59 1.686 0 1.02.681 1.685 1.637 1.685.481 0 .922-.121 1.31-.45l-.341-.517a1.515 1.515 0 0 1-.929.336c-.447 0-.855-.209-.955-.786h2.372c.007-.087.014-.174.014-.268zm3.053-.786a2.042 2.042 0 0 0-.995-.275c-.38 0-.608.14-.608.376 0 .215.24.275.54.315l.328.047c.696.102 1.116.397 1.116.96 0 .612-.534 1.048-1.456 1.048-.522 0-1.003-.134-1.384-.416l.327-.544c.234.181.583.336 1.064.336.474 0 .728-.141.728-.39 0-.18-.18-.282-.561-.335l-.328-.047c-.715-.102-1.103-.424-1.103-.947 0-.638.522-1.028 1.33-1.028.508 0 .97.115 1.303.336l-.3.564zm8.572-.236c-.143 0-.275.025-.398.075a.956.956 0 0 0-.53.539 1.109 1.109 0 0 0-.076.419c0 .153.025.292.076.419a.956.956 0 0 0 .53.539c.123.05.255.075.398.075.143 0 .276-.025.399-.076a.955.955 0 0 0 .533-.538c.051-.127.077-.266.077-.42 0-.151-.026-.291-.077-.418a.955.955 0 0 0-.533-.539 1.046 1.046 0 0 0-.399-.075zm0-.664c.248 0 .478.043.689.13a1.633 1.633 0 0 1 .91.893c.087.207.13.432.13.674 0 .242-.043.466-.13.673a1.636 1.636 0 0 1-.91.894c-.211.086-.44.129-.689.129-.248 0-.477-.043-.688-.13a1.665 1.665 0 0 1-.546-.356 1.656 1.656 0 0 1-.36-.537 1.715 1.715 0 0 1-.13-.673c0-.242.043-.467.13-.674.087-.206.207-.385.36-.536.153-.151.335-.27.546-.357.21-.087.44-.13.688-.13zm-18.066 1.686c0-.564.368-1.028.97-1.028.574 0 .962.444.962 1.028 0 .584-.388 1.027-.963 1.027-.601 0-.969-.463-.969-1.027zm2.587 0v-1.605h-.695v.39c-.221-.29-.555-.47-1.01-.47-.895 0-1.596.704-1.596 1.685 0 .98.701 1.685 1.597 1.685.454 0 .788-.18 1.009-.47v.39h.695v-1.605zm-3.917 1.605v-2.015c0-.758-.48-1.269-1.256-1.276-.407-.007-.829.121-1.123.571-.22-.355-.568-.57-1.056-.57-.34 0-.675.1-.936.476v-.396h-.694v3.21h.701v-1.78c0-.557.308-.853.782-.853.461 0 .695.302.695.847v1.786h.702v-1.78c0-.557.321-.853.782-.853.475 0 .702.302.702.847v1.786h.701z"/>
        </g>
        <g fill-rule="nonzero">
            <path fill="#37A72E" d="M202 14.033a4.52 4.52 0 0 1-4.218 2.98h-4.618v4.333h-4.075v-7.313zm-24.111-6.026v7.719a.272.272 0 0 0 .496.155l.02-.04.013-.04 3.24-6.934c.218-.468.802-.84 1.318-.86h4.075v13.271h-4.075V13.39l-.011-.062a.244.244 0 0 0-.234-.175.244.244 0 0 0-.217.128l-.003.01.003.01-3.328 7.117c-.217.46-.788.833-1.297.86h-4.075V8.007h4.075zM159.537 8c.747 0 1.535.582 1.752 1.293l1.984 6.467c.101.325.258.318.36 0l1.983-6.467C165.833 8.576 166.62 8 167.368 8h4.537v13.271h-4.075v-7.726a.265.265 0 0 0-.265-.264.276.276 0 0 0-.265.23l-2.384 7.767h-2.934l-2.377-7.773a.264.264 0 0 0-.265-.217.265.265 0 0 0-.258.205l-.007.06v7.718H155V8h4.537z"/>
            <path fill="url(#a)" d="M33.654 0c.232 2.915 2.996 5.222 6.369 5.222h6.898A4.396 4.396 0 0 0 42.636 0h-8.982z" transform="translate(155 8)"/>
        </g>
        <path fill="#182E66" d="M94.806 9.229l-2.673 12.494H88.9l2.673-12.494h3.232zm13.598 8.067l1.702-4.692.98 4.692h-2.682zm3.606 4.427H115l-2.609-12.494h-2.76c-.62 0-1.143.36-1.375.916l-4.85 11.578h3.394l.674-1.866h4.147l.39 1.866zm-8.435-4.08c.014-3.297-4.56-3.479-4.529-4.952.01-.448.437-.925 1.37-1.047.465-.06 1.74-.107 3.188.56l.567-2.65A8.679 8.679 0 0 0 101.148 9c-3.194 0-5.443 1.699-5.462 4.13-.02 1.8 1.605 2.802 2.83 3.4 1.259.613 1.682 1.005 1.676 1.553-.008.839-1.004 1.208-1.933 1.223-1.626.026-2.569-.439-3.32-.79l-.586 2.738c.755.347 2.148.649 3.595.664 3.395 0 5.616-1.677 5.627-4.274zM90.187 9.23l-5.236 12.494h-3.417l-2.577-9.972c-.157-.614-.293-.838-.769-1.097-.776-.422-2.059-.817-3.188-1.063l.077-.362h5.5c.7 0 1.331.466 1.49 1.273l1.361 7.23 3.364-8.503h3.395z"/>
    </g>
</svg>
