<svg xmlns="http://www.w3.org/2000/svg" width="47" height="14" viewBox="0 0 47 14">
    <defs>
        <linearGradient id="a" x1=".012%" x2="99.994%" y1="50%" y2="50%">
            <stop offset="0%" stop-color="#00A0E5"/>
            <stop offset="100%" stop-color="#0077C3"/>
        </linearGradient>
    </defs>
    <g fill="none" fill-rule="nonzero">
        <path fill="#37A72E" d="M47 6.033a4.52 4.52 0 0 1-4.218 2.98h-4.618v4.333h-4.075V6.033zM22.889.007v7.719a.272.272 0 0 0 .496.155l.02-.04.013-.04 3.24-6.934c.218-.468.802-.84 1.318-.86h4.075v13.271h-4.075V5.39l-.011-.062a.244.244 0 0 0-.234-.175.244.244 0 0 0-.217.128l-.003.01.003.01-3.328 7.117c-.217.46-.788.833-1.297.86h-4.075V.007h4.075zM4.537 0c.747 0 1.535.582 1.752 1.293L8.273 7.76c.101.325.258.318.36 0l1.983-6.467C10.833.576 11.62 0 12.368 0h4.537v13.271H12.83V5.545a.265.265 0 0 0-.265-.264.276.276 0 0 0-.265.23l-2.384 7.767H6.982L4.605 5.505a.264.264 0 0 0-.265-.217.265.265 0 0 0-.258.205l-.007.06v7.718H0V0h4.537z"/>
        <path fill="url(#a)" d="M33.654 0c.232 2.915 2.996 5.222 6.369 5.222h6.898A4.396 4.396 0 0 0 42.636 0h-8.982z"/>
    </g>
</svg>
