<svg xmlns="http://www.w3.org/2000/svg" xmlns:xlink="http://www.w3.org/1999/xlink" width="488" height="136" viewBox="0 0 122 34"><defs><path id="kq4za" d="M1517 372a4 4 0 0 1 4-4h42a4 4 0 0 1 4 4v26a4 4 0 0 1-4 4h-42a4 4 0 0 1-4-4z"/><path id="kq4zb" d="M1517 386v-10h50v10z"/><path id="kq4zc" d="M1563 381a3 3 0 1 1 6 0 3 3 0 0 1-6 0z"/><path id="kq4zd" d="M1569 381h10.305"/></defs><g><g transform="translate(-1517 -368)"><g><g><use fill="#e8e8e8" xlink:href="#kq4za"/></g><g><use fill="#9f9f9f" xlink:href="#kq4zb"/></g><g><g><text fill="#fff" dominant-baseline="text-before-edge" font-family="'Helvetica','Helvetica-Oblique'" font-size="10" transform="translate(1544 374)"><tspan>123</tspan></text></g></g></g><g><g><use fill="#ff3939" xlink:href="#kq4zc"/></g><g><use fill="#fff" fill-opacity="0" stroke="#ec2626" stroke-linecap="square" stroke-miterlimit="50" xlink:href="#kq4zd"/></g></g><g><g><text dominant-baseline="text-before-edge" font-family="'Helvetica','Helvetica'" font-size="10" transform="translate(1584 374)"><tspan>CVV / CVV2</tspan></text></g></g></g></g></svg>