<svg xmlns="http://www.w3.org/2000/svg" xmlns:xlink="http://www.w3.org/1999/xlink" width="256" height="120" viewBox="0 0 64 30"><defs><path id="semqa" d="M669.228 887.029a13.987 13.987 0 0 0 4.625-10.404c0-4.13-1.79-7.844-4.625-10.432a13.926 13.926 0 0 0-9.413-3.633c-7.76 0-14.065 6.304-14.065 14.064 0 7.763 6.305 14.038 14.065 14.038 3.634 0 6.935-1.376 9.413-3.633z"/><path id="semqb" d="M678.675 862.56a14.05 14.05 0 0 0-9.442 3.633c-.495.468-.962.963-1.404 1.488h2.834c.387.466.744.99 1.074 1.485h-4.982c-.302.496-.577.992-.826 1.486h6.606c.222.495.44.992.606 1.487h-7.788c-.165.495-.303.992-.413 1.514h8.614c.192.936.304 1.954.304 2.972 0 1.541-.25 3.056-.717 4.46h-7.787c.163.494.356.99.576 1.485h6.606c-.247.496-.496 1.019-.799 1.487h-4.982c.332.523.689 1.018 1.074 1.486h2.834a14.46 14.46 0 0 1-1.43 1.487 14.045 14.045 0 0 0 9.442 3.633c7.761 0 14.037-6.275 14.037-14.038 0-7.761-6.276-14.065-14.037-14.065z"/><path id="semqc" d="M688.273 879.65v-.11h.145v.11h-.145zm0 .183v-.134h.055l.054.134h.111l-.082-.16c.055 0 .082-.054.082-.108 0-.028-.027-.054-.054-.08-.028-.027-.057-.027-.11-.027h-.165v.375zm.055.175a.363.363 0 0 1-.356-.358c0-.192.163-.33.356-.33.192 0 .33.138.33.33 0 .193-.137.358-.33.358zm-.468-.358c0 .249.221.469.468.469.249 0 .44-.22.44-.469a.434.434 0 0 0-.44-.44c-.247 0-.468.192-.468.44z"/><path id="semqd" d="M658.054 880.118h-1.76l1.045-5.477-2.394 5.477h-1.598l-.274-5.45-1.046 5.45h-1.597l1.35-7.128h2.75l.138 4.403 1.93-4.403h2.831z"/><path id="semqe" d="M677.594 880.036c-.496.136-.854.191-1.267.191-.88 0-1.377-.44-1.377-1.265 0-.165.028-.331.055-.524l.11-.578.084-.44.798-4.43h1.733l-.246 1.32h.907l-.247 1.405h-.909l-.44 2.421c-.028.11-.055.193-.055.248 0 .303.193.44.607.44a2 2 0 0 0 .467-.055l-.22 1.267z"/><path id="semqf" d="M682.693 874.36c-.138-.055-.165-.055-.193-.055-.083-.029-.138-.029-.138-.055h-.192c-.579 0-.991.248-1.515.935l.165-.88h-1.597l-1.073 5.807h1.762c.632-3.551.88-4.184 1.733-4.184.055 0 .14.028.22.028l.194.055.634-1.65z"/><path id="semqg" d="M670.66 876.152c0 .716.414 1.239 1.35 1.598.716.302.826.385.826.66 0 .358-.33.523-1.019.523-.523 0-1.02-.082-1.597-.247l-.22 1.35h.083l.302.081c.11 0 .274.028.468.028.413.054.744.054.991.054 1.844 0 2.725-.605 2.725-1.926 0-.799-.358-1.266-1.266-1.624-.744-.275-.826-.358-.826-.633 0-.302.303-.468.881-.468.33 0 .825.029 1.265.082l.248-1.32c-.467-.082-1.155-.11-1.54-.11-1.982-.001-2.67.88-2.67 1.952z"/><path id="semqh" d="M662.458 877.53c-.195-.028-.276-.028-.386-.028-.991 0-1.486.303-1.486.882 0 .357.22.605.605.605.717 0 1.239-.605 1.267-1.46zm1.266 2.587h-1.432l.028-.606c-.44.468-1.046.688-1.844.688-.935 0-1.596-.632-1.596-1.568 0-1.405 1.127-2.23 3.083-2.23.19 0 .44 0 .715.028.055-.192.055-.276.055-.358 0-.385-.304-.523-1.13-.523-.495 0-1.044.055-1.43.138l-.247.083-.166.027.247-1.293c.882-.222 1.432-.303 2.094-.303 1.512 0 2.284.577 2.284 1.678 0 .303-.028.523-.137 1.157l-.358 2.064-.055.357-.056.304-.028.192-.027.165z"/><path id="semqi" d="M668.546 876.539v-.304c0-.467-.304-.743-.826-.743-.55 0-.936.385-1.102 1.047h1.928zm.935 3.44a6.661 6.661 0 0 1-1.789.246c-1.952 0-2.972-.908-2.972-2.614 0-1.983 1.294-3.441 3.056-3.441 1.43 0 2.341.826 2.341 2.092 0 .44-.056.854-.193 1.432h-3.497v.193c0 .66.495 1.017 1.514 1.017.633 0 1.21-.11 1.816-.356l-.276 1.43z"/><path id="semqj" d="M686.328 876.732c0-.608-.249-1.158-.966-1.158-.887 0-1.439 1.048-1.439 1.987 0 .773.388 1.298.996 1.298.387 0 1.216-.525 1.354-1.408.055-.222.055-.47.055-.72zm1.806.74c-.275 1.925-1.624 2.779-3.414 2.779-1.953 0-2.75-1.183-2.75-2.669 0-2.037 1.347-3.442 3.439-3.442 1.817 0 2.78 1.156 2.78 2.615 0 .36 0 .387-.055.717z"/></defs><g><g transform="translate(-637 -862)"><g><g><g><use fill="#d2d1d1" xlink:href="#semqa"/></g></g><g><use fill="#dfdfdf" xlink:href="#semqb"/></g><g><g><use fill="#fff" xlink:href="#semqc"/></g><g><use fill="#fff" xlink:href="#semqd"/></g><g><use fill="#fff" xlink:href="#semqe"/></g><g><use fill="#fff" xlink:href="#semqf"/></g><g><use fill="#fff" xlink:href="#semqg"/></g><g><use fill="#fff" xlink:href="#semqh"/></g><g><use fill="#fff" xlink:href="#semqi"/></g><g><use fill="#fff" xlink:href="#semqj"/></g></g></g></g></g></svg>