<svg xmlns="http://www.w3.org/2000/svg" xmlns:xlink="http://www.w3.org/1999/xlink" width="64" height="30" viewBox="0 0 64 30"><defs><path id="sgqba" d="M850.33 883.826l2.54-14.286h3.968l-2.46 14.286z"/><path id="sgqbb" d="M850.33 883.826l3.254-14.286h3.254l-2.46 14.286z"/><path id="sgqbc" d="M868.743 869.695c-.794-.318-2.064-.635-3.65-.635-3.97 0-6.826 1.984-6.826 4.841 0 2.143 1.984 3.254 3.571 3.969 1.587.714 2.064 1.19 2.064 1.825 0 .952-1.27 1.428-2.381 1.428-1.588 0-2.46-.238-3.81-.793l-.555-.238-.556 3.254c.952.397 2.698.793 4.524.793 4.206 0 6.984-1.984 6.984-5 0-1.666-1.032-2.936-3.413-3.968-1.428-.714-2.301-1.111-2.301-1.825 0-.635.714-1.27 2.301-1.27 1.35 0 2.302.238 3.016.555l.397.16.635-3.096z"/><path id="sgqbd" d="M868.743 869.695c-.794-.318-2.064-.635-3.65-.635-3.97 0-6.112 1.984-6.112 4.841 0 2.143 1.27 3.254 2.857 3.969 1.587.714 2.064 1.19 2.064 1.825 0 .952-1.27 1.428-2.381 1.428-1.588 0-2.46-.238-3.81-.793l-.555-.238-.556 3.254c.952.397 2.698.793 4.524.793 4.206 0 6.984-1.984 6.984-5 0-1.666-1.032-2.936-3.413-3.968-1.428-.714-2.301-1.111-2.301-1.825 0-.635.714-1.27 2.301-1.27 1.35 0 2.302.238 3.016.555l.397.16.635-3.096z"/><path id="sgqbe" d="M873.75 879.064c.239-.714 1.588-4.207 1.588-4.207s.317-.873.555-1.428l.238 1.35s.794 3.57.953 4.364h-3.334zm1.826-9.524c-.953 0-1.667.08-2.064 1.032l-5.952 13.254h4.286l.793-2.381h5.08l.476 2.38h3.81l-3.334-14.285z"/><path id="sgqbf" d="M873.75 879.064c.318-.794 1.588-4.207 1.588-4.207s.317-.873.555-1.428l.238 1.35s.794 3.57.953 4.364h-3.334zm2.778-9.524c-.952 0-1.666.08-2.063 1.032l-6.905 13.254h4.286l.793-2.381h5.08l.476 2.38h3.81l-3.334-14.285z"/><path id="sgqbg" d="M843.032 879.54l-.396-2.063c-.715-2.38-3.016-5-5.556-6.27l3.571 12.699h4.286l6.429-14.286h-4.286z"/><path id="sgqbh" d="M843.032 879.54l-.396-2.063c-.715-2.38-3.016-5-5.556-6.27l3.571 12.699h4.286l6.429-14.286h-3.492z"/><path id="sgqbi" d="M832 869.54l.714.159c5.08 1.19 8.572 4.206 9.92 7.778l-1.428-6.747c-.238-.952-.952-1.19-1.825-1.19H832z"/><path id="sgqbj" d="M832 869.54c5.08 1.19 9.286 4.286 10.635 7.857l-1.35-5.635c-.237-.952-1.031-1.508-1.904-1.508z"/><path id="sgqbk" d="M832 869.54c5.08 1.19 9.286 4.286 10.635 7.857l-.952-3.095c-.239-.952-.556-1.905-1.667-2.302z"/></defs><g><g transform="translate(-825 -862)"><g><g><use fill="#dedede" xlink:href="#sgqba"/></g><g><use fill="#dedede" xlink:href="#sgqbb"/></g><g><use fill="#dedede" xlink:href="#sgqbc"/></g><g><use fill="#dedede" xlink:href="#sgqbd"/></g><g><use fill="#dedede" xlink:href="#sgqbe"/></g><g><use fill="#dedede" xlink:href="#sgqbf"/></g><g><use fill="#dedede" xlink:href="#sgqbg"/></g><g><use fill="#dedede" xlink:href="#sgqbh"/></g><g><use fill="#dedede" xlink:href="#sgqbi"/></g><g><use fill="#dedede" xlink:href="#sgqbj"/></g><g><use fill="#dedede" xlink:href="#sgqbk"/></g></g></g></g></svg>