<svg xmlns="http://www.w3.org/2000/svg" xmlns:xlink="http://www.w3.org/1999/xlink" width="44" height="56" viewBox="0 0 11 14"><defs><path id="vd8ka" d="M270.813 101.591v-1.262c0-1.392 1.13-2.542 2.519-2.542 1.388 0 2.519 1.15 2.519 2.542v1.262zm3.375 4.123v1.917c0 .22-.184.406-.403.406h-.906a.409.409 0 0 1-.403-.406v-1.917c-.213-.21-.337-.5-.337-.82 0-.609.47-1.131 1.066-1.156.063-.002.19-.002.253 0 .597.025 1.066.547 1.066 1.155 0 .321-.124.611-.336.82zm3.711-4.123h-.27v-1.262c0-2.336-1.853-4.286-4.17-4.328a9.287 9.287 0 0 0-.254 0c-2.317.041-4.171 1.992-4.171 4.328v1.262h-.27c-.416 0-.755.43-.755.959v6.333c0 .529.339.962.755.962h9.135c.416 0 .756-.433.756-.962v-6.333c0-.53-.34-.959-.756-.959z"/></defs><g><g transform="translate(-268 -96)"><use fill="#656d78" xlink:href="#vd8ka"/></g></g></svg>