<svg xmlns="http://www.w3.org/2000/svg" width="40" height="30" viewBox="0 0 40 30">
    <g fill="none" fill-rule="nonzero">
        <path fill="#6C6BBD" d="M24.762 21.429H14.286V2.857h10.476z"/>
        <path fill="#D32011" d="M14.915 11.905c0-3.797 1.802-7.18 4.609-9.36A12.12 12.12 0 0 0 12.066 0C5.402 0 0 5.33 0 11.905 0 18.48 5.402 23.81 12.066 23.81a12.12 12.12 0 0 0 7.458-2.546c-2.807-2.18-4.609-5.562-4.609-9.36"/>
        <path fill="#0099DF" d="M39.048 11.905c0 6.575-5.402 11.905-12.066 11.905-2.815 0-5.405-.952-7.458-2.546 2.807-2.18 4.61-5.562 4.61-9.36 0-3.796-1.803-7.179-4.61-9.359A12.122 12.122 0 0 1 26.982 0c6.664 0 12.066 5.33 12.066 11.905"/>
        <path fill="#110F0D" d="M28.588 26.607c.14 0 .34.027.495.088l-.215.658a1.121 1.121 0 0 0-.434-.08c-.454 0-.682.294-.682.825v1.8h-.695v-3.21h.688v.39c.181-.282.442-.47.843-.47zm-2.57.719h-1.135v1.45c0 .322.113.538.461.538.18 0 .408-.061.614-.182l.2.597c-.22.155-.567.25-.867.25-.823 0-1.11-.444-1.11-1.19v-1.463h-.648v-.638h.648v-.974h.702v.974h1.136v.638zm-8.895.685c.074-.464.354-.78.849-.78.447 0 .735.283.808.78h-1.657zm2.38.282c-.007-1-.622-1.686-1.518-1.686-.936 0-1.59.685-1.59 1.686 0 1.02.681 1.685 1.637 1.685.481 0 .922-.121 1.31-.45L19 29.011a1.515 1.515 0 0 1-.929.336c-.447 0-.855-.209-.955-.786h2.372c.007-.087.014-.174.014-.268zm3.053-.786a2.042 2.042 0 0 0-.995-.275c-.38 0-.608.14-.608.376 0 .215.24.275.54.315l.328.047c.696.102 1.116.397 1.116.96 0 .612-.534 1.048-1.456 1.048-.522 0-1.003-.134-1.384-.416l.327-.544c.234.181.583.336 1.064.336.474 0 .728-.141.728-.39 0-.18-.18-.282-.561-.335l-.328-.047c-.715-.102-1.103-.424-1.103-.947 0-.638.522-1.028 1.33-1.028.508 0 .97.115 1.303.336l-.3.564zm8.572-.236c-.143 0-.275.025-.398.075a.956.956 0 0 0-.53.539 1.109 1.109 0 0 0-.076.419c0 .153.025.292.076.419a.956.956 0 0 0 .53.539c.123.05.255.075.398.075.143 0 .276-.025.399-.076a.955.955 0 0 0 .533-.538c.051-.127.077-.266.077-.42 0-.151-.026-.291-.077-.418a.955.955 0 0 0-.533-.539 1.046 1.046 0 0 0-.399-.075zm0-.664c.248 0 .478.043.689.13a1.633 1.633 0 0 1 .91.893c.087.207.13.432.13.674 0 .242-.043.466-.13.673a1.636 1.636 0 0 1-.91.894c-.211.086-.44.129-.689.129-.248 0-.477-.043-.688-.13a1.665 1.665 0 0 1-.546-.356 1.656 1.656 0 0 1-.36-.537 1.715 1.715 0 0 1-.13-.673c0-.242.043-.467.13-.674.087-.206.207-.385.36-.536.153-.151.335-.27.546-.357.21-.087.44-.13.688-.13zm-18.066 1.686c0-.564.368-1.028.97-1.028.574 0 .962.444.962 1.028 0 .584-.388 1.027-.963 1.027-.601 0-.969-.463-.969-1.027zm2.587 0v-1.605h-.695v.39c-.221-.29-.555-.47-1.01-.47-.895 0-1.596.704-1.596 1.685 0 .98.701 1.685 1.597 1.685.454 0 .788-.18 1.009-.47v.39h.695v-1.605zm-3.917 1.605v-2.015c0-.758-.48-1.269-1.256-1.276-.407-.007-.829.121-1.123.571-.22-.355-.568-.57-1.056-.57-.34 0-.675.1-.936.476v-.396h-.694v3.21h.701v-1.78c0-.557.308-.853.782-.853.461 0 .695.302.695.847v1.786h.702v-1.78c0-.557.321-.853.782-.853.475 0 .702.302.702.847v1.786h.701z"/>
    </g>
</svg>
