<svg xmlns="http://www.w3.org/2000/svg" xmlns:xlink="http://www.w3.org/1999/xlink" width="40" height="52" viewBox="0 0 10 13"><defs><path id="xz3sa" d="M111.634 338.25v-1.186c0-1.306 1.064-2.386 2.371-2.386s2.371 1.08 2.371 2.386v1.186zm3.17 3.867v1.797c0 .206-.172.38-.379.38h-.85a.384.384 0 0 1-.379-.38v-1.797a1.069 1.069 0 0 1-.316-.769c0-.57.44-1.06 1.001-1.082.06-.002.179-.002.238 0 .56.023 1.001.512 1.001 1.082 0 .3-.116.573-.316.77zm3.487-3.867h-.254v-1.186c0-2.192-1.741-4.024-3.918-4.063a8.806 8.806 0 0 0-.238 0c-2.177.039-3.918 1.87-3.918 4.063v1.186h-.254c-.39 0-.709.403-.709.9v5.946c0 .497.319.904.71.904h8.58c.391 0 .71-.407.71-.904v-5.946c0-.497-.319-.9-.71-.9z"/></defs><g><g transform="translate(-109 -333)"><use fill="#656d78" xlink:href="#xz3sa"/></g></g></svg>