<svg xmlns="http://www.w3.org/2000/svg" width="38" height="29" viewBox="0 0 38 29">
    <g fill="none" fill-rule="nonzero">
        <path fill="#231F20" d="M7.135 28.52v-1.817a1.055 1.055 0 0 0-.321-.832 1.144 1.144 0 0 0-.862-.318 1.179 1.179 0 0 0-1.057.515 1.116 1.116 0 0 0-.994-.515 1.007 1.007 0 0 0-.88.43v-.358h-.655v2.895h.66v-1.593a.662.662 0 0 1 .18-.55.719.719 0 0 1 .557-.219c.434 0 .654.273.654.763v1.611h.66v-1.605a.665.665 0 0 1 .182-.55.722.722 0 0 1 .555-.219c.447 0 .66.273.66.763v1.611l.661-.012zm9.775-2.895h-1.076v-.878h-.66v.878h-.598v.576h.61v1.332c0 .672.27 1.072 1.044 1.072.29.001.573-.077.818-.224l-.188-.539c-.176.1-.375.157-.58.163-.314 0-.433-.193-.433-.484v-1.32h1.07l-.007-.576zm5.581-.072a.895.895 0 0 0-.793.424v-.352h-.648v2.895h.655v-1.623c0-.478.214-.745.629-.745.14-.002.279.023.409.073l.201-.606a1.45 1.45 0 0 0-.465-.078l.012.012zm-8.438.303a2.318 2.318 0 0 0-1.227-.303c-.76 0-1.258.351-1.258.926 0 .473.365.763 1.038.854l.315.043c.358.048.528.139.528.302 0 .225-.239.352-.686.352-.359.01-.711-.097-1-.303l-.315.49c.382.257.838.388 1.303.376.868 0 1.372-.394 1.372-.945 0-.55-.397-.775-1.051-.866l-.315-.042c-.283-.037-.51-.091-.51-.285 0-.194.214-.339.573-.339.332.004.657.09.944.248l.29-.508zm17.527-.303a.895.895 0 0 0-.793.424v-.352h-.648v2.895h.655v-1.623c0-.478.214-.745.629-.745.14-.002.279.023.409.073l.201-.606a1.45 1.45 0 0 0-.465-.078l.012.012zm-8.431 1.514c-.016.411.15.81.454 1.098.306.288.723.44 1.15.416.393.019.78-.104 1.082-.345l-.314-.51a1.355 1.355 0 0 1-.787.261c-.501-.039-.888-.442-.888-.926 0-.485.387-.888.888-.927.285.003.56.095.787.26l.314-.508a1.613 1.613 0 0 0-1.082-.345 1.553 1.553 0 0 0-1.15.415c-.305.289-.47.687-.454 1.099v.012zm6.128 0v-1.442h-.654v.352a1.16 1.16 0 0 0-.944-.424c-.869 0-1.573.678-1.573 1.514s.704 1.514 1.573 1.514a1.16 1.16 0 0 0 .944-.424v.351h.654v-1.441zm-2.435 0c.03-.475.448-.841.942-.823.494.018.883.412.875.888-.008.476-.41.859-.904.861a.92.92 0 0 1-.667-.27.85.85 0 0 1-.246-.656zm-7.896-1.514c-.87.011-1.564.699-1.551 1.535.012.836.726 1.505 1.595 1.493.452.022.897-.118 1.249-.394l-.315-.466a1.466 1.466 0 0 1-.875.303c-.45.037-.848-.277-.9-.709h2.234v-.242c0-.909-.585-1.514-1.428-1.514l-.01-.006zm0 .563a.762.762 0 0 1 .531.2.705.705 0 0 1 .23.502h-1.573c.024-.404.378-.716.799-.702h.013zm16.394.957v-2.61h-.63v1.514a1.16 1.16 0 0 0-.943-.424c-.869 0-1.573.678-1.573 1.514s.704 1.514 1.573 1.514a1.16 1.16 0 0 0 .944-.424v.351h.629v-1.435zm1.092 1.026a.316.316 0 0 1 .217.082.272.272 0 0 1 0 .406.316.316 0 0 1-.098.06.316.316 0 0 1-.403-.151.275.275 0 0 1 .066-.315.316.316 0 0 1 .227-.082h-.01zm0 .512a.23.23 0 0 0 .163-.067.218.218 0 0 0-.163-.369.244.244 0 0 0-.167.067.218.218 0 0 0 0 .302.24.24 0 0 0 .176.067h-.01zm.018-.36a.13.13 0 0 1 .082.024c.02.016.03.04.028.064.001.02-.007.04-.022.054a.112.112 0 0 1-.066.027l.092.1h-.073l-.085-.1h-.028v.1h-.06v-.266l.132-.003zm-.069.051v.073h.07a.069.069 0 0 0 .037 0 .03.03 0 0 0 0-.027.03.03 0 0 0 0-.028.069.069 0 0 0-.038 0l-.069-.018zm-3.46-1.23c.029-.474.447-.84.941-.822.494.018.883.413.875.888-.008.476-.41.859-.904.861a.92.92 0 0 1-.667-.27.85.85 0 0 1-.246-.656zm-22.095 0v-1.447h-.655v.352a1.16 1.16 0 0 0-.944-.424c-.868 0-1.573.678-1.573 1.514s.705 1.514 1.573 1.514a1.16 1.16 0 0 0 .944-.424v.351h.655v-1.435zm-2.436 0c.03-.474.448-.84.942-.822.494.018.883.413.875.888-.008.476-.41.859-.904.861a.92.92 0 0 1-.671-.269.85.85 0 0 1-.248-.657h.006z"/>
        <path fill="#FF5F00" d="M13.814 2.4h10.01V20.35h-10.01z"/>
        <path fill="#EB001B" d="M14.45 11.377A11.388 11.388 0 0 1 18.819 2.4C14.129-1.28 7.393-.743 3.346 3.63a11.399 11.399 0 0 0 0 15.49c4.047 4.374 10.783 4.91 15.473 1.232a11.388 11.388 0 0 1-4.37-8.975z"/>
        <path fill="#F79E1B" d="M37.33 11.377c0 4.371-2.502 8.358-6.442 10.268a11.46 11.46 0 0 1-12.069-1.293 11.407 11.407 0 0 0 4.371-8.976c0-3.503-1.611-6.812-4.371-8.976a11.46 11.46 0 0 1 12.07-1.294 11.414 11.414 0 0 1 6.44 10.268v.003zM36.245 18.998v-.823h.155v-.17h-.393v.17h.168v.823h.07zm.762 0v-.993h-.119l-.138.71-.139-.71h-.105v.993h.085v-.745l.129.646h.09l.128-.646v.752l.07-.007z"/>
    </g>
</svg>
