<svg xmlns="http://www.w3.org/2000/svg" xmlns:xlink="http://www.w3.org/1999/xlink" width="40" height="27" viewBox="0 0 40 27">
    <defs>
        <path id="a" d="M0 26.368h39.93V0H0z"/>
    </defs>
    <g fill="none" fill-rule="evenodd">
        <path fill="#292E75" d="M0 0h39.888l.043 12.43C35.115 10.6 19.795 6.217 0 11.679V0z"/>
        <mask id="b" fill="#fff">
            <use xlink:href="#a"/>
        </mask>
        <path fill="#FFF101" d="M0 26.368h39.888v-9.944C32.694 14.016 19.906 10.408 0 15.52v10.848z" mask="url(#b)"/>
        <path fill="#D8232A" d="M39.888 16.424C32.694 14.016 19.906 10.408 0 15.519v-3.84c19.795-5.463 35.115-1.08 39.93.752l-.042 3.993z" mask="url(#b)"/>
        <path fill="#FFF101" d="M12.706 9.336c.987-2.728 3.246-5.083 7.17-5.053 3.925.03 6.544 2.264 7.251 5.198-5.059-.527-8.43-.618-14.421-.145" mask="url(#b)"/>
        <path fill="#292E75" d="M30.13 19.883c-.31.073-.775.135-1.394.186-.351.028-.6.06-.744.097a.775.775 0 0 0-.337.16c-.08.069-.12.146-.12.23 0 .131.087.24.259.327.172.086.424.13.756.13.329 0 .622-.04.878-.124.256-.082.445-.195.565-.338.092-.11.137-.273.137-.488v-.18zm.072 1.092a4.13 4.13 0 0 1-.914.326 4.48 4.48 0 0 1-.942.095c-.554 0-.978-.077-1.276-.232-.296-.155-.445-.353-.445-.593 0-.142.055-.27.168-.388.112-.116.26-.21.44-.28.184-.07.388-.124.616-.16.167-.026.42-.05.758-.074.69-.047 1.198-.103 1.523-.168.004-.067.005-.11.005-.128 0-.199-.08-.34-.243-.42-.216-.111-.542-.166-.971-.166-.402 0-.698.04-.89.12a.798.798 0 0 0-.425.429l-.834-.066c.076-.204.201-.37.374-.495.174-.126.426-.223.755-.291.328-.068.709-.102 1.143-.102.43 0 .779.03 1.048.087.269.058.466.13.594.219a.709.709 0 0 1 .265.333c.028.083.042.233.042.45v.651c0 .455.018.743.056.862a.85.85 0 0 0 .215.347h-.892a.73.73 0 0 1-.17-.356zm-7.275.356v-2.883h.767v.436c.196-.204.378-.339.544-.404.166-.065.348-.098.548-.098.288 0 .58.053.877.158l-.295.454a1.908 1.908 0 0 0-.624-.107 1.26 1.26 0 0 0-.504.096.633.633 0 0 0-.317.268 1.159 1.159 0 0 0-.143.57v1.51h-.853zm-2.835 0v-.424c-.394.326-.926.489-1.6.489-.296 0-.575-.033-.832-.098-.258-.065-.449-.147-.574-.245a.786.786 0 0 1-.264-.363 1.484 1.484 0 0 1-.051-.456v-1.786h.853v1.598c0 .256.018.428.052.516.055.13.168.23.342.303.174.074.39.11.646.11.255 0 .495-.037.72-.112.225-.075.384-.178.476-.307.094-.13.141-.318.141-.564v-1.544h.853v2.883h-.762zm-9.175-1.635h2.36l-.727-1.102a8.276 8.276 0 0 1-.493-.825 3.593 3.593 0 0 1-.375.76l-.765 1.167zm-2.006 1.635l2.672-3.98h.99l2.847 3.98h-1.049l-.811-1.206h-2.908l-.763 1.206h-.978z" mask="url(#b)"/>
        <path stroke="#292E75" stroke-width=".216" d="M30.13 19.883c-.31.073-.775.135-1.394.186-.351.028-.6.06-.744.097a.775.775 0 0 0-.337.16c-.08.069-.12.146-.12.23 0 .131.087.24.259.327.172.086.424.13.756.13.329 0 .622-.04.878-.124.256-.082.445-.195.565-.338.092-.11.137-.273.137-.488v-.18zm.072 1.092a4.13 4.13 0 0 1-.914.326 4.48 4.48 0 0 1-.942.095c-.554 0-.978-.077-1.276-.232-.296-.155-.445-.353-.445-.593 0-.142.055-.27.168-.388.112-.116.26-.21.44-.28.184-.07.388-.124.616-.16.167-.026.42-.05.758-.074.69-.047 1.198-.103 1.523-.168.004-.067.005-.11.005-.128 0-.199-.08-.34-.243-.42-.216-.111-.542-.166-.971-.166-.402 0-.698.04-.89.12a.798.798 0 0 0-.425.429l-.834-.066c.076-.204.201-.37.374-.495.174-.126.426-.223.755-.291.328-.068.709-.102 1.143-.102.43 0 .779.03 1.048.087.269.058.466.13.594.219a.709.709 0 0 1 .265.333c.028.083.042.233.042.45v.651c0 .455.018.743.056.862a.85.85 0 0 0 .215.347h-.892a.73.73 0 0 1-.17-.356zm-7.275.356v-2.883h.767v.436c.196-.204.378-.339.544-.404.166-.065.348-.098.548-.098.288 0 .58.053.877.158l-.295.454a1.908 1.908 0 0 0-.624-.107 1.26 1.26 0 0 0-.504.096.633.633 0 0 0-.317.268 1.159 1.159 0 0 0-.143.57v1.51h-.853zm-2.835 0v-.424c-.394.326-.926.489-1.6.489-.296 0-.575-.033-.832-.098-.258-.065-.449-.147-.574-.245a.786.786 0 0 1-.264-.363 1.484 1.484 0 0 1-.051-.456v-1.786h.853v1.598c0 .256.018.428.052.516.055.13.168.23.342.303.174.074.39.11.646.11.255 0 .495-.037.72-.112.225-.075.384-.178.476-.307.094-.13.141-.318.141-.564v-1.544h.853v2.883h-.762zm-9.175-1.635h2.36l-.727-1.102a8.276 8.276 0 0 1-.493-.825 3.593 3.593 0 0 1-.375.76l-.765 1.167zm-2.006 1.635l2.672-3.98h.99l2.847 3.98h-1.049l-.811-1.206h-2.908l-.763 1.206h-.978z" mask="url(#b)"/>
    </g>
</svg>
