<svg xmlns="http://www.w3.org/2000/svg" xmlns:xlink="http://www.w3.org/1999/xlink" width="256" height="120" viewBox="0 0 64 30"><defs><path id="whxea" d="M788 877.001c0 8.21-6.667 14.921-15 14.921-8.254 0-15-6.71-15-14.921 0-8.21 6.667-14.921 14.92-14.921 8.413 0 15.08 6.71 15.08 14.921z"/><path id="whxeb" d="M773 862.08c8.254 0 15 6.71 15 14.921 0 8.21-6.667 14.921-15 14.921-8.254 0-15-6.71-15-14.92"/><path id="whxec" d="M773 862.08c8.254 0 15 6.71 15 14.921 0 8.21-6.667 14.921-15 14.921"/><path id="whxed" d="M752.841 862.08c-8.174.079-14.841 6.71-14.841 14.921 0 8.21 6.667 14.921 15 14.921 3.889 0 7.381-1.5 10.08-3.868.555-.474 1.031-1.027 1.507-1.58h-3.095a18.221 18.221 0 0 1-1.111-1.5h5.317c.318-.473.635-1.026.873-1.578h-7.063a9.38 9.38 0 0 1-.635-1.58h8.254c.476-1.5.794-3.078.794-4.736 0-1.105-.16-2.132-.318-3.158h-9.206c.08-.553.238-1.026.397-1.579h8.254a9.381 9.381 0 0 0-.635-1.579h-6.984c.238-.552.555-1.026.873-1.579h5.317a7.51 7.51 0 0 0-1.19-1.579h-2.937a13.49 13.49 0 0 1 1.508-1.5c-2.619-2.447-6.19-3.868-10.08-3.868 0-.158 0-.158-.079-.158z"/><path id="whxee" d="M738 877.003c0 8.21 6.667 14.921 15 14.921 3.889 0 7.381-1.5 10.08-3.868.555-.474 1.031-1.027 1.507-1.58h-3.095a18.218 18.218 0 0 1-1.111-1.5h5.317c.318-.473.635-1.025.873-1.578h-7.063a9.38 9.38 0 0 1-.635-1.579h8.254c.476-1.5.794-3.079.794-4.737 0-1.105-.16-2.131-.318-3.158h-9.206c.08-.552.238-1.026.397-1.579h8.254a9.38 9.38 0 0 0-.635-1.579h-6.984c.238-.552.555-1.026.873-1.579h5.317a7.511 7.511 0 0 0-1.19-1.579h-2.937c.476-.552.952-1.026 1.508-1.5-2.619-2.447-6.19-3.868-10.08-3.868h-.079"/><path id="whxef" d="M752.999 891.924c3.889 0 7.38-1.5 10.08-3.868.555-.474 1.03-1.027 1.507-1.58h-3.095a18.218 18.218 0 0 1-1.111-1.5h5.317c.318-.473.635-1.025.873-1.578h-7.063a9.38 9.38 0 0 1-.635-1.579h8.254c.476-1.5.793-3.079.793-4.737 0-1.105-.158-2.131-.317-3.158h-9.206c.079-.552.238-1.026.396-1.579h8.254a9.38 9.38 0 0 0-.635-1.579h-6.984c.238-.552.556-1.026.873-1.579h5.318a7.511 7.511 0 0 0-1.19-1.579h-2.937c.476-.552.952-1.026 1.508-1.5-2.62-2.447-6.19-3.868-10.08-3.868h-.079"/><path id="whxeg" d="M758.322 880.787l.238-1.342c-.08 0-.238.08-.397.08-.556 0-.635-.317-.556-.474l.476-2.764h.874l.238-1.5h-.794l.159-.947h-1.588s-.952 5.21-.952 5.842c0 .947.556 1.342 1.27 1.342.476 0 .873-.158 1.032-.237z"/><path id="whxeh" d="M761.642 875.973c.868 0 .71 1.026.71 1.105h-1.736c0-.079.158-1.105 1.026-1.105zm-2.772 2.29c0 2.21 1.508 2.763 2.778 2.763 1.19 0 1.666-.237 1.666-.237l.318-1.5s-.873.395-1.667.395c-1.746 0-1.428-1.263-1.428-1.263h3.254s.238-1.027.238-1.422c0-1.026-.556-2.289-2.302-2.289-1.667-.158-2.857 1.579-2.857 3.553z"/><path id="whxei" d="M771.735 880.788l.318-1.737s-.794.395-1.35.395c-1.11 0-1.587-.869-1.587-1.816 0-1.895.952-2.921 2.064-2.921.793 0 1.428.474 1.428.474l.238-1.658s-.952-.395-1.825-.395c-1.826 0-3.651 1.579-3.651 4.579 0 1.974.952 3.316 2.857 3.316.635 0 1.508-.237 1.508-.237z"/><path id="whxej" d="M749.893 878.103c0 .236-.157 1.5-1.104 1.5-.474 0-.632-.395-.632-.632 0-.395.237-.947 1.42-.947.237.079.316.079.316.079zm-.307-3.553c-1.111 0-1.905.316-1.905.316l-.238 1.342s.714-.316 1.746-.316c.556 0 1.032.079 1.032.553 0 .316-.08.394-.08.394h-.714c-1.35 0-2.857.553-2.857 2.369 0 1.42.952 1.737 1.508 1.737 1.111 0 1.587-.71 1.667-.71l-.08.63h1.429l.635-4.341c0-1.895-1.588-1.974-2.143-1.974z"/><path id="whxek" d="M753.235 880.944c.397 0 2.381.079 2.381-2.053 0-1.974-1.904-1.579-1.904-2.368 0-.395.317-.553.873-.553.238 0 1.11.079 1.11.079l.239-1.421s-.556-.158-1.508-.158c-1.19 0-2.381.474-2.381 2.053 0 1.815 1.984 1.658 1.984 2.368 0 .474-.556.553-.952.553-.715 0-1.429-.237-1.429-.237l-.238 1.42c.08.159.476.317 1.825.317z"/><path id="whxel" d="M784.19 877.474c0 .869-.397 1.974-1.27 1.974-.556 0-.873-.474-.873-1.263 0-1.263.555-2.053 1.27-2.053.555 0 .873.395.873 1.342zm.714-4.184l-.318 2.132s-.635-.79-1.508-.79c-1.428 0-2.698 1.737-2.698 3.79 0 1.263.635 2.605 1.984 2.605.953 0 1.508-.632 1.508-.632l-.08.553h1.588l1.19-7.579z"/><path id="whxem" d="M740.938 880.869l.952-5.684.159 5.684h1.111l2.064-5.684-.873 5.684h1.666l1.27-7.579h-2.619l-1.587 4.658-.08-4.658H740.7l-1.27 7.579z"/><path id="whxen" d="M765.536 880.868c.476-2.605.556-4.737 1.667-4.342.158-1.027.397-1.421.555-1.816h-.317c-.714 0-1.27.947-1.27.947l.159-.868h-1.508l-1.032 6.158h1.746z"/><path id="whxeo" d="M775.773 878.103c0 .236-.158 1.5-1.105 1.5-.473 0-.631-.395-.631-.632 0-.395.236-.947 1.42-.947.237.079.237.079.316.079zm-.387-3.553c-1.111 0-1.905.316-1.905.316l-.238 1.342s.714-.316 1.746-.316c.556 0 1.032.079 1.032.553 0 .316-.08.394-.08.394h-.714c-1.35 0-2.857.553-2.857 2.369 0 1.42.952 1.737 1.508 1.737 1.111 0 1.587-.71 1.667-.71l-.08.63h1.429l.635-4.341c.08-1.895-1.588-1.974-2.143-1.974z"/><path id="whxep" d="M778.876 880.868c.476-2.605.556-4.737 1.667-4.342.158-1.027.397-1.421.555-1.816h-.317c-.714 0-1.27.947-1.27.947l.159-.868h-1.508l-1.032 6.158h1.746z"/><path id="whxeq" d="M755.86 879.682c0 .947.556 1.342 1.27 1.342.555 0 1.032-.158 1.19-.237l.238-1.342c-.079 0-.238.08-.396.08-.556 0-.635-.317-.556-.474l.476-2.764h.873l.238-1.5h-.793l.158-.947"/><path id="whxer" d="M761.66 875.973c.876 0 1.036 1.026 1.036 1.105h-2.074c0-.079.16-1.105 1.037-1.105zm-1.99 2.29c0 2.21.714 2.763 1.984 2.763 1.19 0 1.667-.237 1.667-.237l.317-1.5s-.873.395-1.666.395c-1.746 0-1.429-1.263-1.429-1.263h3.254s.238-1.027.238-1.422c0-1.026-.555-2.289-2.302-2.289-1.666-.158-2.063 1.579-2.063 3.553z"/><path id="whxes" d="M771.731 880.788l.318-1.737s-.794.395-1.35.395c-1.11 0-1.587-.869-1.587-1.816 0-1.895.953-2.921 2.064-2.921.794 0 1.428.474 1.428.474l.239-1.658s-.953-.395-1.826-.395c-1.825 0-2.857 1.579-2.857 4.579 0 1.974.159 3.316 2.063 3.316.635 0 1.508-.237 1.508-.237z"/><path id="whxet" d="M750.697 878.104c0 .236-.952 1.49-1.905 1.49-.476 0-.635-.391-.635-.627 0-.392.238-.941 1.429-.941.238.078 1.111.078 1.111.078zm-3.254-1.815s.714-.316 1.746-.316c.556 0 1.032.08 1.032.553 0 .316-.08.395-.08.395h-.714c-1.35 0-2.857.552-2.857 2.368 0 1.421.952 1.737 1.508 1.737 1.111 0 1.587-.71 1.667-.71l-.08.63h1.429l.635-4.341c0-1.816-1.588-1.895-2.222-1.895z"/><path id="whxeu" d="M751.49 880.786s.476.158 1.825.158c.397 0 2.381.079 2.381-2.053 0-1.974-1.904-1.579-1.904-2.368 0-.395.317-.553.873-.553.238 0 1.11.079 1.11.079l.239-1.421s-.556-.158-1.508-.158c-1.19 0-1.587.474-1.587 2.053 0 1.815 1.19 1.658 1.19 2.368 0 .474-.556.553-.952.553"/><path id="whxev" d="M784.51 877.475c0 .869-.715 1.974-1.588 1.974-.556 0-.873-.474-.873-1.263 0-1.263.555-2.053 1.27-2.053.555 0 1.19.395 1.19 1.342zm.078-2.052s-.634-.79-1.507-.79c-1.429 0-1.905 1.737-1.905 3.79 0 1.263-.159 2.605 1.19 2.605.953 0 1.508-.632 1.508-.632l-.08.553h1.588l1.19-7.579z"/><path id="whxew" d="M740.938 880.869l.952-5.684.159 5.684h1.111l2.064-5.684-.873 5.684h1.666l1.27-7.579h-1.984l-2.222 4.658-.08-4.658h-.873l-2.698 7.579z"/><path id="whxex" d="M763.87 880.868h1.667c.476-2.605.555-4.737 1.666-4.342.16-1.027.397-1.421.556-1.816h-.318c-.714 0-1.27.947-1.27.947l.16-.868"/><path id="whxey" d="M776.497 878.104c0 .236-.952 1.49-1.905 1.49-.476 0-.635-.391-.635-.627 0-.392.238-.941 1.429-.941.317.078 1.111.078 1.111.078zm-3.254-1.815s.714-.316 1.746-.316c.556 0 1.032.08 1.032.553 0 .316-.08.395-.08.395h-.714c-1.35 0-2.857.552-2.857 2.368 0 1.421.952 1.737 1.508 1.737 1.111 0 1.587-.71 1.667-.71l-.08.63h1.429l.635-4.341c0-1.816-1.588-1.895-2.222-1.895z"/><path id="whxez" d="M777.21 880.868h1.667c.476-2.605.555-4.737 1.666-4.342.16-1.027.397-1.421.556-1.816h-.318c-.714 0-1.27.947-1.27.947l.16-.868"/></defs><g><g transform="translate(-731 -862)"><g><g><use fill="#dfdfdf" xlink:href="#whxea"/></g><g><use fill="#dfdfdf" xlink:href="#whxeb"/></g><g><use fill="#dfdfdf" xlink:href="#whxec"/></g><g><use fill="#d2d1d1" xlink:href="#whxed"/></g><g><use fill="#d2d1d1" xlink:href="#whxee"/></g><g><use fill="#d2d1d1" xlink:href="#whxef"/></g><g><g><use fill="#fff" xlink:href="#whxeg"/></g><g><use fill="#fff" xlink:href="#whxeh"/></g><g><use fill="#fff" xlink:href="#whxei"/></g><g><use fill="#fff" xlink:href="#whxej"/></g><g><use fill="#fff" xlink:href="#whxek"/></g><g><use fill="#fff" xlink:href="#whxel"/></g><g><use fill="#fff" xlink:href="#whxem"/></g><g><use fill="#fff" xlink:href="#whxen"/></g><g><use fill="#fff" xlink:href="#whxeo"/></g><g><use fill="#fff" xlink:href="#whxep"/></g></g><g><g><use fill="#fff" xlink:href="#whxeq"/></g><g><use fill="#fff" xlink:href="#whxer"/></g><g><use fill="#fff" xlink:href="#whxes"/></g><g><use fill="#fff" xlink:href="#whxet"/></g><g><use fill="#fff" xlink:href="#whxeu"/></g><g><use fill="#fff" xlink:href="#whxev"/></g><g><use fill="#fff" xlink:href="#whxew"/></g><g><use fill="#fff" xlink:href="#whxex"/></g><g><use fill="#fff" xlink:href="#whxey"/></g><g><use fill="#fff" xlink:href="#whxez"/></g></g></g></g></g></svg>