<?xml version="1.0" encoding="UTF-8"?>
<svg width="41px" height="18px" viewBox="0 0 41 18" version="1.1" xmlns="http://www.w3.org/2000/svg" xmlns:xlink="http://www.w3.org/1999/xlink">
    <!-- Generator: sketchtool 60 (101010) - https://sketch.com -->
    <title>24A6D5A3-7FC4-470D-967B-B3F29524580D</title>
    <desc>Created with sketchtool.</desc>
    <g id="Page-1" stroke="none" stroke-width="1" fill="none" fill-rule="evenodd">
        <g id="MAIN-1660_vip_widget_br-logo_3_0" transform="translate(-217.000000, -89.000000)" fill="#B3131B" fill-rule="nonzero">
            <g id="Group-4" transform="translate(27.000000, 49.000000)">
                <path d="M207.106512,57.8206115 L190,57.8268205 L190,57.7856259 C190,57.7629987 190.027284,57.6161907 190.060598,57.4593526 C190.093971,57.3025743 190.145793,57.0531379 190.175883,56.9051358 C190.205854,56.7571337 190.257198,56.5056077 190.289855,56.3460831 C190.370214,55.9564059 190.449618,55.5664899 190.528008,55.1763948 C190.558874,55.0226016 190.610277,54.7710159 190.642397,54.6174018 C190.683353,54.420802 190.723831,54.2240828 190.764011,54.0273039 C190.798758,53.8565552 190.851594,53.5955962 190.881445,53.4475344 C190.911297,53.2994726 190.9587,53.0712306 190.98682,52.940363 C191.01488,52.8094358 191.050761,52.6324184 191.066403,52.5469246 C191.082105,52.4615503 191.132912,52.2099049 191.1793,51.9879316 C191.218346,51.8018394 191.256316,51.6155084 191.293033,51.4289386 C191.309213,51.3435642 191.360616,51.0919189 191.407304,50.8699455 C191.453931,50.6479722 191.505156,50.3963866 191.521156,50.3109525 C191.537156,50.2255782 191.588679,49.9739925 191.635605,49.7519595 C191.682651,49.5298668 191.733398,49.2830573 191.748323,49.2033547 C191.763368,49.1236521 191.804444,48.9186939 191.839668,48.7478855 C191.874833,48.5770771 191.94146,48.2556397 191.98767,48.0336067 C192.033939,47.811514 192.112985,47.4248817 192.163314,47.1742512 C192.213763,46.9237999 192.274002,46.6257061 192.297227,46.511794 C192.365466,46.1769833 192.434303,45.8422323 192.503856,45.5077201 C192.538126,45.342464 192.593828,45.0723109 192.627679,44.9071742 C192.66159,44.7420376 192.71377,44.4858548 192.743681,44.3378527 C192.773592,44.1898506 192.824637,43.9429814 192.857115,43.7891882 C192.889593,43.6355144 192.945475,43.3652419 192.981296,43.1887617 C193.017118,43.0122219 193.077118,42.7420688 193.114611,42.5883353 C193.152105,42.4346018 193.20512,42.2482708 193.232464,42.1742996 C193.259748,42.100209 193.335152,41.9398485 193.399989,41.8176975 L193.517901,41.5957839 L193.625066,41.455364 C193.683933,41.3782285 193.789188,41.2562567 193.858861,41.184375 C193.928533,41.1124934 194.046028,41.0043128 194.120118,40.9440134 C194.194089,40.8836544 194.301255,40.8022204 194.358151,40.7630556 C194.415108,40.7238909 194.52693,40.6552929 194.606633,40.6106355 C194.686335,40.5659782 194.798217,40.5075296 194.855114,40.4807233 C194.91207,40.4539169 195.028549,40.4049013 195.113923,40.3718859 C195.199298,40.3389302 195.362345,40.2835861 195.476197,40.2490185 C195.59005,40.2143911 195.803844,40.1622113 195.951249,40.1331362 C196.098654,40.1040015 196.331493,40.0650756 196.468868,40.0466275 L196.718484,40.0130748 L213.835742,40.006627 L230.953,40 L230.953,40.0411946 C230.953,40.0638218 230.925537,40.2106299 230.892044,40.3674082 C230.849715,40.5657991 230.808162,40.7643094 230.767385,40.9630585 C230.73228,41.1338669 230.681354,41.3807957 230.653891,41.511723 C230.615085,41.6979943 230.576577,41.8843253 230.538487,42.070716 C230.502426,42.2472558 230.447023,42.5174686 230.415321,42.6711424 C230.383619,42.824876 230.332215,43.0764616 230.30117,43.2301355 C230.270125,43.3839287 230.218422,43.6354547 230.186362,43.7891285 C230.148989,43.9684743 230.112093,44.1479396 230.075674,44.3275242 C230.046957,44.4698546 229.994897,44.7260373 229.96009,44.8968457 C229.925224,45.0675944 229.869283,45.3378669 229.83573,45.4972722 C229.802178,45.6566774 229.751072,45.9036063 229.722177,46.0459367 C229.693221,46.1882671 229.64122,46.4444498 229.606473,46.6151985 C229.571727,46.7860069 229.515905,47.0562794 229.482352,47.2157444 C229.4488,47.3751496 229.398888,47.617362 229.371246,47.7540207 C229.294648,48.1336678 229.217513,48.513315 229.139959,48.8927831 C229.111899,49.0293821 229.061928,49.2716542 229.028913,49.4310594 C228.986584,49.634525 228.944673,49.83811 228.90306,50.0418144 C228.86694,50.2183542 228.815238,50.4698205 228.788253,50.6008671 C228.761148,50.7317346 228.71058,50.9786038 228.675714,51.1494122 C228.634877,51.3496539 228.593862,51.5497164 228.552548,51.7498386 C228.519652,51.9093036 228.468069,52.1608893 228.43786,52.3089511 C228.40777,52.4569532 228.355291,52.7131956 228.32144,52.8782129 C228.287529,53.0433496 228.232066,53.3135027 228.198334,53.4786393 C228.164542,53.643776 228.113915,53.8907049 228.085795,54.0273636 C228.047466,54.2135752 228.009495,54.3999062 227.971644,54.5862969 C227.930867,54.7858818 227.889076,54.9852876 227.84615,55.1844546 L227.783821,55.4720408 L227.709551,55.670969 C227.668715,55.7804034 227.607281,55.9258383 227.573012,55.9941975 C227.538922,56.062497 227.469249,56.183036 227.418263,56.2620819 C227.367277,56.3410084 227.296232,56.4422636 227.26041,56.4869806 C227.224529,56.5316977 227.116707,56.647162 227.020526,56.743641 L226.846016,56.9188673 L226.678014,57.038272 C226.585595,57.1040043 226.485951,57.1708112 226.456817,57.186692 C226.427563,57.2026923 226.316218,57.2595886 226.209291,57.3129625 C226.102483,57.3664558 225.951556,57.4345762 225.873943,57.4642482 C225.79633,57.4940397 225.642596,57.5446076 225.532326,57.5766677 C225.422056,57.6088473 225.303845,57.6404895 225.269755,57.6470568 C225.235546,57.6535644 225.116977,57.678102 225.006229,57.7016247 C224.895481,57.7250878 224.671836,57.7600733 224.509386,57.7794169 L224.213859,57.8146413 L207.107348,57.8206115 L207.106512,57.8206115 Z M201.020455,53.3957725 L201.465596,53.3957725 L201.478133,53.3629959 C201.485118,53.3449658 201.49073,53.3026368 201.49073,53.268905 C201.49073,53.2351732 201.505417,53.1125446 201.523388,52.9963638 C201.541298,52.8800637 201.583329,52.6126569 201.616882,52.402027 C201.650375,52.1913375 201.700525,51.8745568 201.728346,51.6980767 C201.754794,51.5309102 201.779929,51.3635048 201.803869,51.19598 C201.817541,51.0963368 201.834198,51.0148431 201.840944,51.0148431 C201.847631,51.0148431 201.876408,51.0588438 201.904886,51.1126953 L201.956588,51.2105474 L202.071336,51.3262505 L202.186143,51.441894 L202.327399,51.4984918 L202.468715,51.5550299 L202.637075,51.5768213 L202.805495,51.5986126 L203.01917,51.5855378 L203.232905,51.5723436 L203.464311,51.5125218 L203.695777,51.452521 L203.819958,51.3959232 C203.888317,51.3647585 204.009393,51.2966979 204.089096,51.2448165 L204.234053,51.1504271 L204.369159,51.0153207 C204.443489,50.9411704 204.548326,50.8220046 204.602058,50.7506006 C204.65591,50.6793757 204.69991,50.6157927 204.69991,50.6094642 C204.69991,50.6031358 204.726359,50.5589561 204.758658,50.5113136 C204.790957,50.4637308 204.856987,50.3314901 204.905466,50.2176975 C204.954004,50.1038451 205.029706,49.898887 205.073886,49.7622283 L205.154126,49.5137472 L205.195619,49.2985799 C205.218425,49.1802499 205.247799,48.9845456 205.260874,48.8637678 L205.284575,48.6441826 L205.270844,48.4578516 L205.257172,48.2715206 L205.213888,48.0851895 L205.170723,47.8988585 L205.100752,47.7593939 L205.030841,47.6198098 L204.895734,47.4766436 L204.760687,47.3334774 L204.600864,47.2508493 L204.441041,47.168281 L204.265039,47.1260714 L204.089036,47.0839813 L203.913034,47.0710856 L203.737091,47.0581302 L203.541088,47.080638 L203.344966,47.1032054 L203.185023,47.1441015 L203.025021,47.1849379 L202.885974,47.2492971 C202.809555,47.2846409 202.69827,47.3447611 202.638807,47.3827915 C202.579283,47.4209413 202.51785,47.4646434 202.502327,47.4801063 C202.486864,47.4955692 202.449669,47.5242861 202.419818,47.543749 L202.365429,47.5793913 L202.4034,47.3974783 C202.424356,47.2974769 202.441789,47.2040427 202.442266,47.1897141 L202.443102,47.163863 L201.683927,47.163863 L201.617419,47.5830929 C201.580762,47.813723 201.52297,48.1700863 201.488939,48.3751041 C201.413894,48.8272896 201.337952,49.2792961 201.261115,49.7311831 C201.227264,49.9304098 201.171323,50.2472501 201.136755,50.4351334 C201.102188,50.6230167 201.05162,50.8978862 201.024276,51.045948 C200.996992,51.1939502 200.945529,51.4734168 200.910066,51.6669718 C200.868214,51.8947959 200.825945,52.1225604 200.783258,52.3502054 C200.742839,52.564298 200.701525,52.7782115 200.659435,52.9920056 C200.625524,53.1627543 200.592807,53.3235924 200.586539,53.3490853 L200.575255,53.3957725 L201.020455,53.3957725 L201.020455,53.3957725 L201.020455,53.3957725 Z M202.9369,51.0020071 L202.764062,51.012455 L202.651105,50.992395 L202.538089,50.9724545 L202.423341,50.9200955 L202.308533,50.8676769 L202.228413,50.7911385 L202.148232,50.7146598 L202.101963,50.6111359 C202.07647,50.5541799 202.043813,50.4574621 202.029305,50.3960881 L202.002917,50.2847432 L202.013484,50.1062929 L202.024111,49.927962 L202.077425,49.6483759 C202.117665,49.4347013 202.15671,49.2207281 202.194442,49.0065758 C202.229487,48.8072894 202.282622,48.5152852 202.312414,48.357671 L202.366564,48.0710998 L202.485252,47.9723521 C202.550566,47.9181424 202.653971,47.8452458 202.715106,47.8106185 L202.826152,47.7475728 L202.97105,47.7027363 L203.116007,47.6578402 L203.302338,47.646855 L203.488669,47.6359294 L203.640433,47.6682881 L203.792136,47.7005871 L203.899242,47.7499012 L204.006289,47.7992153 L204.096081,47.8894853 L204.185933,47.9797552 L204.234292,48.0753984 C204.260979,48.1279961 204.298412,48.2308633 204.317457,48.3040583 L204.352144,48.4371348 L204.341517,48.8305733 L204.33089,49.2240117 L204.277755,49.4565523 C204.248501,49.5844347 204.192858,49.7800793 204.154052,49.8912451 L204.083543,50.0935763 L203.997094,50.2572801 C203.949571,50.347371 203.876317,50.4690443 203.834286,50.527672 C203.792256,50.5862997 203.72521,50.6624799 203.685329,50.6966296 C203.63703,50.7377049 203.587596,50.7773472 203.537028,50.815497 L203.461147,50.8721545 L203.285443,50.9319166 L203.109739,50.9916786 L202.9369,51.0020071 L202.9369,51.0020071 Z M207.236126,51.5712092 L207.46389,51.5738361 L207.691535,51.5530597 C207.81691,51.5416566 208.021808,51.5178354 208.147004,51.5001038 C208.272379,51.4824916 208.48874,51.4429686 208.627966,51.412401 L208.881044,51.3566987 L208.893701,51.2633243 C208.900567,51.2120997 208.929045,51.0593214 208.956866,50.9239165 L209.007434,50.6776443 L208.99621,50.6665397 L208.985046,50.6553753 L208.907672,50.6926893 C208.865104,50.7132269 208.732505,50.7623022 208.6131,50.8016461 L208.395903,50.8731098 L208.16796,50.9173492 L207.940016,50.9614692 L207.577742,50.9622454 L207.215409,50.9629021 L207.091168,50.9232597 C207.022869,50.9014684 206.92239,50.8615872 206.867882,50.8345421 L206.768835,50.7855264 L206.687103,50.7116746 L206.605311,50.6377631 L206.541489,50.5262989 L206.477667,50.4147152 L206.437666,50.2748923 L206.397666,50.13495 L206.397427,49.8760807 L206.397129,49.6172113 L206.432592,49.3863424 L206.468234,49.155354 L206.779761,49.1407866 L207.091288,49.1262193 L208.243006,49.1336821 L209.394664,49.1410254 L209.42941,48.9935607 C209.448575,48.9124252 209.477829,48.7447213 209.494426,48.6208987 L209.524636,48.3957014 L209.525292,48.2063256 L209.526009,48.0168901 L209.493232,47.8755149 L209.460336,47.7340801 L209.406127,47.6405265 C209.376395,47.5890631 209.323737,47.5144352 209.289409,47.4746734 C209.25502,47.4349713 209.193586,47.3789109 209.152929,47.3502537 C209.112152,47.3215966 209.03233,47.2732377 208.975374,47.2429686 L208.87191,47.1879231 L208.691072,47.1443404 L208.510174,47.1008173 L208.287424,47.0795036 L208.064496,47.0582496 L207.857508,47.0717423 L207.65046,47.0851753 L207.401979,47.1329372 L207.153557,47.1806991 L206.998212,47.2427298 C206.912778,47.2767601 206.782388,47.3391491 206.708417,47.3811198 C206.634386,47.4230906 206.531936,47.4913901 206.480772,47.5328235 C206.429428,47.5743763 206.34065,47.6551536 206.283515,47.7122887 C206.22632,47.7694239 206.141662,47.8720522 206.095572,47.9403517 C206.049362,48.0087705 205.978555,48.1298469 205.938077,48.2094898 C205.897719,48.2892521 205.845121,48.4010746 205.82118,48.457971 C205.797359,48.5148673 205.753776,48.6313466 205.724641,48.7167209 C205.695387,48.8022147 205.649416,48.9652021 205.62261,49.0791141 C205.590968,49.2170862 205.563624,49.3559539 205.540639,49.4956574 L205.507564,49.7052126 L205.507922,50.0132767 L205.50828,50.3213407 L205.539684,50.4559098 C205.556938,50.5299407 205.590132,50.6417632 205.613177,50.704391 C205.636222,50.7670187 205.679089,50.8601544 205.708283,50.9114387 C205.737477,50.962723 205.799747,51.0451122 205.846673,51.0947846 C205.893539,51.1443375 205.978615,51.2196819 206.035571,51.2620108 C206.092408,51.3043398 206.193782,51.3640421 206.260709,51.3944903 L206.382442,51.4498941 L206.552176,51.4909693 C206.64549,51.5135368 206.786388,51.5402834 206.865255,51.5504328 C206.943883,51.5602837 207.11087,51.5698361 207.236126,51.5712092 L207.236126,51.5712092 Z M207.626042,48.6545708 C207.052899,48.6545708 206.583937,48.650511 206.583937,48.6454363 C206.583937,48.640481 206.608415,48.5682412 206.638326,48.4849564 C206.668177,48.4017314 206.720715,48.2779087 206.754925,48.2097883 L206.817314,48.0857866 L206.954211,47.9496055 L207.091168,47.8133051 L207.225797,47.7490057 C207.299768,47.7136022 207.39762,47.6750942 207.443173,47.6633328 C207.488786,47.6516311 207.619116,47.6361085 207.732968,47.6288846 L207.940076,47.6155709 L208.099123,47.6360488 L208.258051,47.656467 L208.373634,47.7093633 L208.489218,47.7623193 L208.552622,47.8306785 C208.587428,47.8682312 208.628922,47.923635 208.644922,47.9536056 L208.673758,48.0082929 L208.692863,48.1296678 L208.712027,48.2509232 L208.690116,48.4527769 L208.668265,48.6547499 L207.626042,48.6547499 L207.626042,48.6545708 L207.626042,48.6545708 Z M213.820159,51.5713286 L214.048043,51.5738361 L214.306674,51.5431491 C214.448945,51.5263131 214.63832,51.4983724 214.727575,51.480999 C214.835398,51.4593271 214.942444,51.4338939 215.048475,51.4048785 C215.13576,51.3801618 215.214746,51.3534748 215.223941,51.3455941 C215.233194,51.3376537 215.257792,51.2437419 215.278747,51.136815 C215.299703,51.0298881 215.326032,50.8865428 215.337315,50.8181836 C215.348539,50.7498244 215.35439,50.6903012 215.350271,50.6858235 C215.346092,50.6813459 215.330868,50.687137 215.31636,50.6985998 C215.301852,50.7101821 215.200298,50.752929 215.090625,50.793646 L214.891279,50.8676769 L214.607335,50.9226627 L214.32339,50.9776486 L214.082074,50.9694693 L213.840697,50.9612304 L213.703561,50.913588 L213.566425,50.8660052 L213.460513,50.7734069 L213.35466,50.6806891 L213.284331,50.5526276 L213.214061,50.4246855 L213.180509,50.2533995 L213.147016,50.0822329 L213.147314,49.8600804 L213.147493,49.637928 L213.18815,49.3687899 L213.228867,49.0995323 L213.271913,48.954575 C213.295555,48.8748724 213.322421,48.7817368 213.331436,48.747587 C213.340511,48.7133776 213.378422,48.6155851 213.415796,48.5300914 C213.453109,48.444717 213.519737,48.3127152 213.563798,48.2368335 L213.643918,48.0988017 L213.742367,47.9967704 L213.840757,47.8947391 L213.944937,47.8301411 L214.049237,47.7654835 L214.18309,47.7242292 C214.256703,47.701602 214.386854,47.672109 214.472228,47.6589148 L214.627574,47.6346757 L214.855219,47.6460788 L215.082983,47.657482 L215.352122,47.7113335 L215.621319,47.7651253 L215.730754,47.8060214 C215.790934,47.8284098 215.842815,47.8469175 215.846099,47.8469175 C215.849323,47.8469175 215.863771,47.7700209 215.878159,47.6760494 C215.892607,47.5821973 215.918279,47.4275683 215.935234,47.3326415 C215.952249,47.2375954 215.962041,47.1558032 215.956966,47.1508479 C215.952011,47.1458329 215.871114,47.1329969 215.777262,47.1222505 C215.68335,47.1116235 215.428123,47.0926381 215.210209,47.0800409 L214.813845,47.0572943 L214.534259,47.0786678 L214.254793,47.1001606 L214.047685,47.1436239 L213.840637,47.1871469 L213.707322,47.2404611 C213.633948,47.269775 213.526603,47.3227309 213.468632,47.3581344 C213.413049,47.391926 213.358422,47.4271503 213.304749,47.4638076 C213.27251,47.4866139 213.174837,47.575451 213.087552,47.6613626 L212.929042,47.8173648 L212.840444,47.9470383 C212.791846,48.0183826 212.707606,48.1671012 212.653337,48.2775505 L212.554709,48.4783892 L212.479066,48.6957057 C212.437513,48.8152895 212.379423,49.010934 212.350109,49.1305178 L212.296675,49.3479538 L212.277272,49.544673 L212.257928,49.7413922 L212.258107,50.0001421 L212.258346,50.2588921 L212.277869,50.4094614 L212.297392,50.5600307 L212.359422,50.7148986 L212.421393,50.8697664 L212.493096,50.9817083 L212.564619,51.0936502 L212.678472,51.2057712 L212.792443,51.3178325 L212.912863,51.3815946 L213.033462,51.4451776 L213.191673,51.4891782 C213.278659,51.513298 213.404452,51.5410596 213.471199,51.550791 C213.537946,51.5605225 213.694964,51.569657 213.820339,51.5710301 L213.820159,51.5710301 L213.820159,51.5713286 Z M217.22582,51.5636867 L217.505286,51.5556269 L217.681289,51.5106114 L217.857291,51.4654764 L217.971204,51.4117443 C218.033831,51.3821916 218.136281,51.3236833 218.198849,51.281832 C218.261536,51.2400404 218.358552,51.1605168 218.414314,51.1051728 C218.470136,51.049769 218.552943,50.9553199 218.598317,50.8951996 C218.643691,50.8350794 218.683572,50.7886907 218.686856,50.792034 C218.690318,50.7953773 218.679811,50.8910205 218.663631,51.0046937 C218.647571,51.1184267 218.634198,51.2696527 218.633959,51.3408776 L218.633601,51.4701929 L219.393552,51.4701929 L219.405134,51.1752633 L219.416717,50.8802143 L219.470926,50.4971641 C219.500778,50.2864746 219.548957,49.9743507 219.578032,49.803602 C219.606988,49.6328533 219.657496,49.3440731 219.690213,49.1618019 C219.72287,48.9795306 219.774632,48.6954072 219.80514,48.5302705 L219.860783,48.2301468 L219.862693,47.9707999 L219.864484,47.7114529 L219.805916,47.5916303 L219.747288,47.471748 L219.667825,47.3954484 L219.588241,47.3190891 L219.457792,47.2530583 L219.327163,47.1869081 L219.132593,47.1435642 L218.938023,47.1002203 L218.670199,47.0799215 L218.402314,47.0595033 L218.057354,47.0808768 C217.867441,47.0925784 217.600512,47.1157429 217.463853,47.1323402 L217.215372,47.1624899 L217.046056,47.1631466 L216.87674,47.1638033 L216.852083,47.2829095 C216.838531,47.3483433 216.800859,47.5038679 216.76844,47.628586 C216.735902,47.7532445 216.712439,47.8582609 216.716081,47.8619028 C216.719723,47.8655446 216.810292,47.845007 216.917278,47.8162305 C217.024265,47.7873943 217.251671,47.74011 217.422479,47.7109156 L217.732991,47.6580193 L218.012518,47.6465564 L218.292044,47.6350339 L218.472106,47.6666164 L218.652228,47.6981393 L218.772349,47.7574237 L218.89253,47.8167678 L218.959815,47.9170678 L219.027159,48.0173677 L219.026204,48.1753998 L219.025189,48.3335513 L218.989487,48.5069866 L218.953785,48.6805413 L218.208759,48.6832279 L217.463793,48.6858548 L217.220029,48.7527214 C217.085937,48.7894981 216.937458,48.8383346 216.890054,48.8611409 C216.84265,48.8841263 216.795247,48.9028728 216.784679,48.9028728 C216.774172,48.9028728 216.694409,48.9469928 216.607423,49.0011429 L216.449331,49.0993532 L216.324852,49.2236535 C216.256313,49.2920724 216.16885,49.3945216 216.130401,49.4514776 C216.091893,49.508374 216.029445,49.627301 215.991593,49.7157799 L215.922697,49.8765583 L215.891114,50.057337 L215.859472,50.2381157 L215.859472,50.617524 L215.889622,50.7754964 L215.919891,50.9334688 L215.975892,51.0364554 C216.006758,51.0930532 216.063415,51.1760992 216.101625,51.2208759 L216.171357,51.3023099 L216.29512,51.3775349 L216.418943,51.4528195 L216.560736,51.4928201 C216.638707,51.5148502 216.757336,51.5415969 216.824441,51.5522836 L216.946353,51.5714481 L217.22588,51.5634479 L217.22582,51.5634479 L217.22582,51.5636867 Z M217.484629,50.9846337 L217.319015,50.9933503 L217.209282,50.9653499 C217.148983,50.9500064 217.0574,50.9157969 217.005876,50.8892891 L216.912203,50.8410496 L216.860979,50.7802129 C216.832859,50.7466602 216.789933,50.6810473 216.765455,50.634181 L216.721096,50.5489261 L216.712439,50.3499382 L216.703663,50.1508905 L216.738768,50.0301724 C216.758052,49.9638431 216.803366,49.8484982 216.839486,49.7741091 L216.905039,49.6387639 L217.030653,49.5141651 L217.156147,49.3895066 L217.289403,49.3253266 L217.422599,49.261266 L217.588213,49.2218624 L217.753827,49.1824589 L218.789066,49.1824589 L218.821842,49.196071 L218.854559,49.2095637 L218.827037,49.3721332 C218.811872,49.4614479 218.775752,49.6230622 218.746618,49.7312428 C218.717662,49.8394831 218.666378,49.9984705 218.632825,50.084621 C218.599212,50.1708311 218.57169,50.247071 218.57169,50.2539368 C218.57169,50.260922 218.537659,50.3236691 218.496047,50.3935209 L218.420404,50.5205077 L218.296283,50.6435543 C218.228043,50.7111373 218.164579,50.7664814 218.155445,50.7664814 C218.146311,50.7664814 218.104459,50.7898847 218.062429,50.818303 L217.986189,50.8700052 L217.818246,50.9232 L217.650363,50.9762754 L217.484629,50.9846337 L217.484629,50.9846337 Z M224.22383,51.5710301 L224.420489,51.5735376 L224.60688,51.5432685 C224.709389,51.5266713 224.839779,51.4998649 224.896735,51.4837453 C224.953631,51.467566 225.0562,51.425834 225.12438,51.3908485 L225.24868,51.3272058 L225.355547,51.2331149 L225.462355,51.139024 L225.574953,50.988992 C225.636865,50.9064237 225.692925,50.82493 225.699492,50.8077954 L225.711493,50.7766905 L225.701045,50.8802143 C225.693642,50.9495288 225.684089,51.0185447 225.672447,51.0873218 C225.662358,51.1442181 225.648148,51.2537122 225.640626,51.3305491 L225.626894,51.4702526 L226.439204,51.4702526 L226.439204,51.1907859 L226.501056,50.6627784 C226.535027,50.3723862 226.585416,49.9858136 226.612879,49.8035423 C226.640342,49.6212711 226.68279,49.360551 226.707208,49.2238923 C226.731447,49.0872336 226.774672,48.8402451 226.802971,48.6752278 C226.831389,48.5101508 226.882614,48.2212512 226.916883,48.0334276 C226.951092,47.8454846 227.005959,47.5473312 227.038735,47.3709107 C227.071452,47.1943709 227.122378,46.9194416 227.151871,46.7600961 C227.181364,46.6007505 227.234081,46.3211048 227.269127,46.1390126 C227.305844,45.9489204 227.343755,45.7591266 227.382919,45.5696314 C227.410502,45.4387639 227.43301,45.3245533 227.43295,45.3160159 L227.43295,45.3004335 L226.546728,45.3004335 L226.533654,45.4298682 C226.526489,45.5010334 226.492519,45.7362606 226.458309,45.9526816 C226.417652,46.2081479 226.376278,46.4634949 226.334128,46.7186627 C226.309591,46.8658886 226.285352,47.0131146 226.261292,47.1604003 L226.250187,47.2293565 L226.215261,47.2145503 C226.196037,47.2063711 226.091737,47.1774154 225.983616,47.1502509 L225.786956,47.100877 L225.517818,47.0798618 L225.248561,47.0589063 L225.020856,47.0800409 L224.793151,47.101295 L224.586104,47.1536539 L224.379056,47.2059532 L224.182396,47.3018948 L223.985617,47.3978365 L223.84066,47.5050022 L223.695763,47.6122873 L223.570567,47.7466176 C223.50173,47.82035 223.402326,47.942501 223.349549,48.0178453 L223.253786,48.1549816 L223.141187,48.3891342 C223.079336,48.5179718 223.003991,48.6885414 222.973842,48.768244 C222.943632,48.8480064 222.890497,49.0246656 222.855571,49.1609063 L222.792227,49.408671 L222.761003,49.7303473 L222.729838,50.0519638 L222.753242,50.3107137 L222.776824,50.5695831 L222.804466,50.6627187 C222.81981,50.7139433 222.85187,50.8052879 222.87587,50.8655276 L222.919572,50.9753799 L222.999275,51.0832023 L223.079037,51.1911441 L223.170024,51.2656527 L223.26095,51.3402209 L223.385191,51.4019531 C223.45361,51.4357446 223.568119,51.4796856 223.639941,51.4993276 C223.711584,51.5189697 223.828063,51.5426118 223.89875,51.5517463 C223.969378,51.5610598 224.115589,51.5697167 224.22383,51.5710301 L224.22383,51.5710301 Z M224.57685,50.9837382 L224.420489,50.9919174 L224.315055,50.9729918 C224.257024,50.9625439 224.164187,50.9344838 224.108664,50.9107222 L224.007827,50.8675575 L223.92293,50.7979445 L223.838093,50.728451 L223.775047,50.6076732 L223.711942,50.486955 L223.683165,50.352386 L223.654508,50.2177572 L223.656956,49.948619 L223.659344,49.6794809 L223.692777,49.4413282 L223.726151,49.203295 L223.778032,49.0377404 C223.80663,48.9466346 223.830093,48.8606036 223.830212,48.8466332 C223.830451,48.8327823 223.858511,48.7582737 223.89284,48.6811383 C223.93296,48.5918833 223.975349,48.5036433 224.020006,48.4165972 C224.055768,48.3482381 224.122515,48.2417888 224.168247,48.1798775 C224.214158,48.1180855 224.29589,48.0248902 224.349861,47.97277 C224.403832,47.9208887 224.489625,47.8525295 224.54067,47.8211858 L224.633328,47.7641701 L224.796136,47.7078708 L224.958945,47.6515117 L225.300561,47.6513326 L225.642178,47.6513326 L225.838838,47.7059603 C225.947078,47.7359309 226.061945,47.7707373 226.094125,47.7832748 L226.152693,47.8060811 L226.14129,47.862858 C226.135081,47.8941421 226.110364,48.0315171 226.086602,48.1681161 C226.062841,48.3047748 226.015915,48.565674 225.982422,48.7478855 C225.948929,48.9300971 225.897465,49.2049667 225.868032,49.3586405 C225.838659,49.5123143 225.796091,49.7080186 225.773404,49.7933332 C225.75012,49.8810957 225.726478,49.9687387 225.702418,50.0562026 C225.686,50.1153677 225.646895,50.2179363 225.615611,50.2839671 C225.584267,50.3499979 225.529401,50.4460589 225.493699,50.4972238 C225.457937,50.5484484 225.397697,50.6195539 225.359607,50.6550171 C225.321457,50.6905997 225.239008,50.7536454 225.17644,50.7952579 L225.062588,50.8710202 L224.897989,50.9232597 L224.733389,50.9754993 L224.57685,50.9837382 L224.57685,50.9837382 Z M194.105969,51.4703123 L194.608961,51.4703123 L194.645081,51.247742 C194.664902,51.1252925 194.703709,50.8900055 194.731231,50.7249286 L194.845084,50.041695 C194.880189,49.8310054 194.932846,49.5188816 194.962041,49.3481329 C194.991235,49.1773245 195.037684,48.9123655 195.065147,48.7594081 C195.092669,48.6062716 195.120431,48.475822 195.126759,48.4694935 L195.138401,48.4579113 L197.843694,48.4579113 L197.858739,48.4729563 L197.873784,48.4880012 L197.850261,48.6075253 C197.837425,48.6733173 197.799275,48.8760665 197.765543,49.0583377 C197.731811,49.2405493 197.675094,49.5479566 197.639452,49.741631 C197.602018,49.9453354 197.563928,50.1488607 197.525182,50.3523262 C197.497838,50.4946566 197.442554,50.7927504 197.402314,51.0148431 C197.362134,51.2368761 197.329298,51.4301923 197.329418,51.4444612 L197.329656,51.4703123 L198.33988,51.4703123 L198.362208,51.340997 C198.374567,51.2698318 198.394269,51.1417106 198.406209,51.0562766 C198.41803,50.9708425 198.446747,50.7890489 198.469852,50.6525096 C198.492957,50.5159107 198.539106,50.2456382 198.57248,50.0520832 C198.605794,49.8585282 198.661675,49.5277175 198.696542,49.317028 C198.731408,49.1063384 198.78311,48.7988713 198.811528,48.6338541 C198.847469,48.4265675 198.884902,48.2195198 198.923769,48.0127706 C198.957142,47.8362308 199.012785,47.538137 199.047412,47.3501343 C199.08204,47.1623108 199.133801,46.8781873 199.162578,46.7186627 C199.191355,46.5592574 199.243773,46.2704175 199.279117,46.0768625 C199.314461,45.8833075 199.359058,45.6574535 199.378223,45.5747658 L199.413089,45.4246144 L198.390209,45.4246144 L198.376298,45.5230636 C198.368716,45.5770345 198.343999,45.7284993 198.321432,45.8594863 C198.298805,45.9904135 198.257849,46.2233123 198.230266,46.3770459 C198.202684,46.5308391 198.152295,46.8242761 198.118265,47.0292939 C198.084891,47.2300729 198.052771,47.431031 198.021905,47.6322876 L197.987397,47.8624998 L197.23664,47.8777239 L196.485824,47.8928883 L195.857038,47.8779627 C195.511183,47.8697835 195.226283,47.8614252 195.223895,47.859455 C195.221567,47.8574251 195.233328,47.7770061 195.250045,47.6806465 C195.272075,47.5564059 195.295538,47.4324639 195.320434,47.3087606 C195.352195,47.1501912 195.383062,46.9914427 195.412972,46.8324553 C195.441928,46.6787815 195.474645,46.4878534 195.485809,46.4080911 C195.496914,46.3284482 195.520258,46.1956104 195.537631,46.1130421 C195.555004,46.0305335 195.58796,45.8566206 195.610886,45.7266486 C195.633752,45.5966169 195.65817,45.4754808 195.665155,45.4575104 L195.677693,45.4246144 L194.663051,45.4246144 L194.630633,45.605811 C194.612722,45.7054542 194.588901,45.8474861 194.577677,45.921517 C194.566393,45.9954882 194.528602,46.2331035 194.493676,46.4494648 C194.45875,46.6658261 194.407167,46.9872635 194.379047,47.1637436 L194.265434,47.8780224 C194.225493,48.1268618 194.183343,48.3752832 194.139104,48.6233464 C194.102267,48.8270508 194.064714,49.0306358 194.026445,49.2341014 C193.99952,49.3764915 193.948235,49.6466446 193.912414,49.8345875 C193.874861,50.0314859 193.836114,50.2282051 193.796293,50.4246855 C193.768233,50.5612844 193.737247,50.7196748 193.727456,50.7766308 C193.717545,50.8335271 193.685545,50.997828 193.656171,51.1415912 C193.626858,51.2852947 193.602857,51.4180727 193.602857,51.4365805 L193.602857,51.4701332 L194.105969,51.4701332 L194.105969,51.4703123 L194.105969,51.4703123 Z M199.674884,51.4702526 L200.120204,51.4702526 L200.132741,51.4375357 C200.139726,51.4194459 200.145338,51.3722213 200.145338,51.332579 C200.145338,51.2928172 200.173398,51.0862471 200.207548,50.8735874 C200.285698,50.3889238 200.365759,49.9046184 200.44779,49.4205518 C200.482955,49.2166086 200.519911,49.0130236 200.558777,48.8097969 C200.591733,48.6390482 200.64236,48.3734324 200.671256,48.2198183 C200.700092,48.0660848 200.756929,47.773603 200.797467,47.5697792 C200.838005,47.3660748 200.876214,47.1912067 200.882364,47.1812364 L200.893647,47.1630272 L200.443313,47.1685795 L199.992978,47.1741318 L199.955365,47.4433894 C199.934828,47.5913915 199.889693,47.8849479 199.855185,48.0955181 C199.820737,48.3061479 199.768557,48.6277047 199.739243,48.8097969 C199.70378,49.027591 199.665928,49.2450269 199.625808,49.4620449 C199.592674,49.6385251 199.541927,49.9086782 199.512971,50.0624117 C199.484075,50.2162049 199.432194,50.4864177 199.397686,50.6628978 C199.363178,50.8394376 199.316909,51.0723365 199.294819,51.1805171 C199.272669,51.2887575 199.248967,51.3981919 199.242042,51.4238042 L199.229564,51.4703123 L199.674884,51.4703123 L199.674884,51.4702526 L199.674884,51.4702526 Z M210.090554,51.4702526 L210.532531,51.4702526 L210.545844,51.2832052 C210.553188,51.1803977 210.578143,50.9730515 210.601427,50.8225419 C210.624711,50.6720323 210.672413,50.3719086 210.707339,50.155607 C210.751519,49.8881405 210.799639,49.6213308 210.851699,49.3552374 C210.896237,49.1314731 210.946447,48.9090222 210.963402,48.8609618 C210.980358,48.8129014 210.994269,48.7607812 210.994269,48.7452586 C210.994269,48.7295569 211.027523,48.6445408 211.06812,48.5563007 C211.108718,48.468001 211.184361,48.3328349 211.236302,48.2558785 L211.330691,48.1159363 L211.456962,47.9989197 L211.583292,47.8820225 L211.738996,47.8076334 L211.894759,47.7331845 L212.132912,47.7344383 L212.370885,47.735692 L212.487961,47.7706179 C212.552321,47.7898421 212.61059,47.8056035 212.617336,47.8056035 C212.624142,47.8056035 212.629695,47.783633 212.629695,47.7567073 C212.629695,47.7299009 212.653038,47.5935408 212.681457,47.4537179 C212.709935,47.3139547 212.733219,47.1937142 212.733219,47.1864902 C212.733219,47.1792662 212.665695,47.1528181 212.583127,47.1277431 C212.500559,47.1026681 212.386408,47.0763991 212.329511,47.0692945 L212.225988,47.0565182 L212.091418,47.0802797 C212.017388,47.0934143 211.907356,47.1222505 211.846878,47.1445195 C211.78628,47.1667884 211.686398,47.2171772 211.624785,47.2565808 C211.563292,47.2959843 211.46741,47.3727615 211.412006,47.4271503 C211.356423,47.4815989 211.263048,47.5913915 211.204421,47.6710941 C211.158808,47.7330054 211.113434,47.7951556 211.068299,47.8574251 L211.038687,47.8987988 L211.056657,47.8159917 C211.066568,47.7703791 211.094151,47.6213024 211.117912,47.4847034 C211.141614,47.3480447 211.166211,47.2198638 211.172122,47.2000426 L211.183226,47.1637436 L210.393603,47.1637436 L210.393603,47.2137145 C210.393603,47.2411178 210.37026,47.4064933 210.341901,47.5811227 C210.313363,47.7559311 210.266378,48.0477562 210.237541,48.2300274 C210.208645,48.412239 210.157242,48.7289599 210.12351,48.9339777 C210.08745,49.1516525 210.049479,49.3690884 210.009419,49.5861064 C209.931507,50.0005601 209.851805,50.4146555 209.770311,50.8283927 C209.735445,51.0049325 209.693713,51.2132937 209.677653,51.2916829 C209.661473,51.369893 209.648339,51.4420731 209.648339,51.4520434 L209.648339,51.4702526 L210.090554,51.4702526 L210.090554,51.4702526 Z M220.583838,51.4702526 L221.035784,51.4702526 L221.035784,51.1935919 L221.087785,50.8505423 C221.116502,50.6619426 221.163727,50.3630727 221.192921,50.1866523 C221.221996,50.0101124 221.258295,49.7865869 221.273519,49.68969 C221.288803,49.5929722 221.329221,49.3833573 221.363252,49.223952 C221.397461,49.0644273 221.440029,48.8921264 221.457999,48.8409018 C221.476029,48.7896772 221.490776,48.7358257 221.490955,48.7213777 C221.491254,48.7069297 221.529702,48.6139135 221.576628,48.5146882 L221.661943,48.3342677 L221.774601,48.1846536 L221.88714,48.035159 L222.010246,47.9425607 C222.077948,47.8915749 222.186905,47.8241112 222.252399,47.7923496 L222.371266,47.7347368 L222.630016,47.7364682 L222.888826,47.7383189 L222.990738,47.7709761 L223.09259,47.8037527 L223.109784,47.793066 L223.126919,47.782439 L223.127934,47.7164082 C223.128351,47.6801092 223.150501,47.5448834 223.177069,47.4159263 L223.225547,47.1815349 L223.171098,47.1602809 C223.118919,47.140997 223.066261,47.1230266 223.013126,47.1064294 L222.909662,47.0737722 L222.723331,47.0743095 L222.537,47.0747871 L222.385117,47.1282804 L222.233234,47.1816543 L222.119203,47.2504314 L222.005231,47.3192085 L221.85699,47.4744943 L221.708749,47.6297801 L221.629106,47.7502594 C221.585344,47.8164693 221.546777,47.8677536 221.543433,47.8641118 C221.54003,47.8604699 221.563911,47.7224381 221.59633,47.5573611 C221.628748,47.3921648 221.655734,47.2361029 221.656211,47.2104905 L221.657107,47.163863 L220.891066,47.163863 L220.891066,47.1771169 C220.891066,47.1843409 220.872021,47.3171786 220.848618,47.4721062 C220.825274,47.6272129 220.778348,47.9263216 220.744497,48.1370112 C220.70378,48.3890148 220.662525,48.6408989 220.620793,48.8927234 C220.584494,49.1103981 220.546345,49.3278341 220.506463,49.5449118 C220.477747,49.6985856 220.426701,49.9688581 220.393029,50.1453382 C220.359417,50.3218781 220.304073,50.6060612 220.270162,50.7768696 L220.17028,51.2788469 L220.13201,51.4703123 L220.583838,51.4703123 L220.583838,51.4702526 Z M200.550717,46.4180614 L200.676331,46.418539 L200.776273,46.3845087 L200.876274,46.3504783 L200.964693,46.2607457 L201.053172,46.1710728 L201.09968,46.051489 L201.146308,45.9319649 L201.14792,45.7559624 L201.149591,45.5800793 L201.108218,45.5113619 L201.066784,45.4426445 L200.994723,45.3981066 L200.922603,45.3534492 L200.611315,45.3534492 L200.505343,45.4009126 L200.399372,45.4482565 L200.337878,45.5141679 L200.276385,45.5800793 L200.228026,45.6939914 L200.179727,45.807784 L200.170592,45.9851597 L200.161518,46.1625354 L200.206414,46.2507754 L200.251429,46.3388961 L200.338236,46.3782996 L200.424984,46.4176435 L200.550717,46.4180614 L200.550717,46.4180614 Z" id="Shape"></path>
            </g>
        </g>
    </g>
</svg>