<svg xmlns="http://www.w3.org/2000/svg" width="40" height="13" viewBox="0 0 40 13">
    <path fill="#182E66" fill-rule="evenodd" d="M19.806.229l-2.673 12.494H13.9L16.574.229h3.232zm13.598 8.067l1.702-4.692.98 4.692h-2.682zm3.606 4.427H40L37.391.229h-2.76c-.62 0-1.143.36-1.375.916l-4.85 11.578H31.8l.674-1.866h4.147l.39 1.866zm-8.435-4.08c.014-3.297-4.56-3.479-4.529-4.952.01-.448.437-.925 1.37-1.047.465-.06 1.74-.107 3.188.56l.567-2.65A8.679 8.679 0 0 0 26.148 0c-3.194 0-5.443 1.699-5.462 4.13-.02 1.8 1.605 2.802 2.83 3.4 1.259.613 1.682 1.005 1.676 1.553-.008.839-1.004 1.208-1.933 1.223-1.626.026-2.569-.439-3.32-.79l-.586 2.738c.755.347 2.148.649 3.595.664 3.395 0 5.616-1.677 5.627-4.274zM15.187.23L9.951 12.723H6.534L3.957 2.75c-.157-.614-.293-.838-.769-1.097C2.412 1.232 1.13.837 0 .59L.077.23h5.5c.7 0 1.331.466 1.49 1.273l1.361 7.23L11.792.23h3.395z"/>
</svg>
