<svg xmlns="http://www.w3.org/2000/svg" xmlns:xlink="http://www.w3.org/1999/xlink" width="256" height="120" viewBox="0 0 64 30"><defs><path id="4wtca" d="M850.33 827.826l2.54-14.286h3.968l-2.46 14.286z"/><path id="4wtcb" d="M850.33 827.826l3.254-14.286h3.254l-2.46 14.286z"/><path id="4wtcc" d="M868.743 813.695c-.794-.318-2.064-.635-3.65-.635-3.97 0-6.826 1.984-6.826 4.841 0 2.143 1.984 3.254 3.571 3.969 1.587.714 2.064 1.19 2.064 1.825 0 .952-1.27 1.428-2.381 1.428-1.588 0-2.46-.238-3.81-.793l-.555-.238-.556 3.254c.952.397 2.698.793 4.524.793 4.206 0 6.984-1.984 6.984-5 0-1.666-1.032-2.936-3.413-3.968-1.428-.714-2.301-1.111-2.301-1.825 0-.635.714-1.27 2.301-1.27 1.35 0 2.302.238 3.016.555l.397.16.635-3.096z"/><path id="4wtcd" d="M868.743 813.695c-.794-.318-2.064-.635-3.65-.635-3.97 0-6.112 1.984-6.112 4.841 0 2.143 1.27 3.254 2.857 3.969 1.587.714 2.064 1.19 2.064 1.825 0 .952-1.27 1.428-2.381 1.428-1.588 0-2.46-.238-3.81-.793l-.555-.238-.556 3.254c.952.397 2.698.793 4.524.793 4.206 0 6.984-1.984 6.984-5 0-1.666-1.032-2.936-3.413-3.968-1.428-.714-2.301-1.111-2.301-1.825 0-.635.714-1.27 2.301-1.27 1.35 0 2.302.238 3.016.555l.397.16.635-3.096z"/><path id="4wtce" d="M873.75 823.064c.239-.714 1.588-4.207 1.588-4.207s.317-.873.555-1.428l.238 1.35s.794 3.57.953 4.364h-3.334zm1.826-9.524c-.953 0-1.667.08-2.064 1.032l-5.952 13.254h4.286l.793-2.381h5.08l.476 2.38h3.81l-3.334-14.285z"/><path id="4wtcf" d="M873.75 823.064c.318-.794 1.588-4.207 1.588-4.207s.317-.873.555-1.428l.238 1.35s.794 3.57.953 4.364h-3.334zm2.778-9.524c-.952 0-1.666.08-2.063 1.032l-6.905 13.254h4.286l.793-2.381h5.08l.476 2.38h3.81l-3.334-14.285z"/><path id="4wtcg" d="M843.032 823.54l-.396-2.063c-.715-2.38-3.016-5-5.556-6.27l3.571 12.699h4.286l6.429-14.286h-4.286z"/><path id="4wtch" d="M843.032 823.54l-.396-2.063c-.715-2.38-3.016-5-5.556-6.27l3.571 12.699h4.286l6.429-14.286h-3.492z"/><path id="4wtci" d="M832 813.54l.714.159c5.08 1.19 8.572 4.206 9.92 7.778l-1.428-6.747c-.238-.952-.952-1.19-1.825-1.19H832z"/><path id="4wtcj" d="M832 813.54c5.08 1.19 9.286 4.286 10.635 7.857l-1.35-5.635c-.237-.952-1.031-1.508-1.904-1.508z"/><path id="4wtck" d="M832 813.54c5.08 1.19 9.286 4.286 10.635 7.857l-.952-3.095c-.239-.952-.556-1.905-1.667-2.302z"/><path id="4wtcl" d="M847.001 823.057l-2.698-2.699-1.27 3.016-.317-1.984c-.715-2.381-3.016-5-5.556-6.27l3.571 12.698h4.286z"/><path id="4wtcm" d="M854.378 827.822l-3.413-3.492-.635 3.492z"/><path id="4wtcn" d="M863.505 822.9c.317.317.476.556.397.873 0 .952-1.27 1.429-2.381 1.429-1.588 0-2.46-.239-3.81-.794l-.555-.238-.556 3.254c.952.397 2.698.793 4.524.793 2.54 0 4.603-.714 5.793-1.984z"/><path id="4wtco" d="M868.11 827.817h3.73l.794-2.381h5.08l.475 2.38H882l-1.35-5.793-4.761-4.603.238 1.27s.794 3.571.952 4.365h-3.333c.317-.794 1.587-4.206 1.587-4.206s.318-.873.556-1.429"/></defs><g><g transform="translate(-825 -806)"><g><g><use fill="#1a1f71" xlink:href="#4wtca"/></g><g><use fill="#1a1f71" xlink:href="#4wtcb"/></g><g><use fill="#1a1f71" xlink:href="#4wtcc"/></g><g><use fill="#1a1f71" xlink:href="#4wtcd"/></g><g><use fill="#1a1f71" xlink:href="#4wtce"/></g><g><use fill="#1a1f71" xlink:href="#4wtcf"/></g><g><use fill="#1a1f71" xlink:href="#4wtcg"/></g><g><use fill="#1a1f71" xlink:href="#4wtch"/></g><g><use fill="#1a1f71" xlink:href="#4wtci"/></g><g><use fill="#1a1f71" xlink:href="#4wtcj"/></g><g><use fill="#1a1f71" xlink:href="#4wtck"/></g><g><g><use fill="#1a1f71" xlink:href="#4wtcl"/></g><g><use fill="#1a1f71" xlink:href="#4wtcm"/></g><g><use fill="#1a1f71" xlink:href="#1a1f71"/></g><g><use fill="#1a1f71" xlink:href="#4wtco"/></g></g></g></g></g></svg>